<svg width="249" height="249" viewBox="0 0 249 249" fill="none" xmlns="http://www.w3.org/2000/svg">
<rect width="249" height="249" rx="124.5" fill="white"/>
<path d="M159.526 94.5343C159.526 94.5343 171.543 93.7485 174.893 95.078C178.243 96.4074 180.047 109.241 178.236 109.319C176.426 109.396 175.408 106.495 175.408 106.495C175.408 106.495 176.562 109.592 174.979 109.916C173.396 110.24 170.827 107.444 170.827 107.444C170.827 107.444 157.273 112.717 151.406 102.187C146.277 92.9838 159.526 94.5343 159.526 94.5343Z" fill="#ED7569"/>
<path d="M109.279 56.1152L108.404 63.4613C108.404 63.4613 109.477 65.7306 113.733 66.5914C116.904 67.2324 118.115 66.6427 118.115 66.6427L118.111 62.869L118.103 59.1887L110.547 56.5575L109.279 56.1152Z" fill="#F77E6D"/>
<path d="M110.546 56.5557C110.541 56.7584 110.59 57.0045 110.675 57.2901C111.882 61.156 116.281 62.4815 118.111 62.8672L118.103 59.1869L110.546 56.5557Z" fill="black"/>
<path d="M121.734 42.6373C121.734 42.6373 124.493 52.3066 122.363 57.2439C120.233 62.1799 115.669 60.7425 113.006 59.3736C110.343 58.0047 109.275 56.1145 109.275 56.1145C109.275 56.1145 106.544 56.6476 105.124 53.9835C103.704 51.3181 105.156 48.6737 106.734 48.2354C108.312 47.7971 109.94 49.1133 109.94 49.1133L108.908 46.2715C108.908 46.2715 116.577 33.5735 121.734 42.6373Z" fill="#F77E6D"/>
<path d="M119.789 54.2234C119.742 54.2234 119.694 54.2129 119.65 54.1918C119.485 54.1142 119.414 53.918 119.492 53.7535C120.239 52.1674 119.249 50.1851 119.24 50.1667C119.157 50.0048 119.222 49.8073 119.384 49.7244C119.547 49.6415 119.744 49.7073 119.826 49.8679C119.873 49.96 120.974 52.1542 120.088 54.0352C120.031 54.1537 119.913 54.2234 119.789 54.2234Z" fill="black"/>
<path d="M108.989 53.3762C108.886 53.3762 108.785 53.3275 108.721 53.238L106.613 50.2606C106.508 50.1119 106.544 49.9065 106.692 49.8012C106.841 49.6972 107.045 49.7315 107.152 49.8802L109.259 52.8576C109.364 53.0063 109.329 53.2117 109.18 53.317C109.122 53.3565 109.055 53.3762 108.989 53.3762Z" fill="black"/>
<path d="M106.465 52.3012C106.285 52.3012 106.138 52.1564 106.136 51.9748C106.135 51.7931 106.28 51.6444 106.463 51.6431L108.213 51.626C108.396 51.626 108.544 51.7708 108.545 51.9511C108.546 52.1327 108.402 52.2815 108.219 52.2841L106.468 52.3012H106.465Z" fill="black"/>
<path d="M116.72 56.6346C116.392 56.6346 116.046 56.5516 115.715 56.3239C114.615 55.5644 114.407 54.2113 114.399 54.1534C114.381 54.0323 114.432 53.9112 114.532 53.8401C114.631 53.769 114.763 53.7585 114.872 53.8125L118.272 55.5039C118.373 55.5539 118.441 55.6539 118.453 55.7658C118.464 55.879 118.416 55.9896 118.326 56.0594C118.285 56.0909 117.562 56.6346 116.72 56.6346ZM115.267 54.7431C115.421 55.0893 115.677 55.496 116.089 55.7829C116.529 56.0844 117.05 55.9751 117.424 55.8158L115.267 54.7431Z" fill="black"/>
<path d="M116.138 50.2354C115.951 50.2327 115.806 50.084 115.809 49.9024L115.832 48.1728C115.835 47.9924 115.981 47.8477 116.161 47.8477C116.348 47.8503 116.493 47.999 116.49 48.1807L116.467 49.9102C116.464 50.0906 116.318 50.2354 116.138 50.2354Z" fill="black"/>
<path d="M121.242 50.5433C121.06 50.5433 120.914 50.3972 120.913 50.2156L120.903 48.4847C120.902 48.303 121.048 48.1543 121.231 48.1543C121.414 48.1543 121.56 48.3004 121.561 48.482L121.571 50.2129C121.572 50.3946 121.425 50.542 121.242 50.5433Z" fill="black"/>
<path d="M115.015 46.746C114.949 46.746 114.885 46.7262 114.827 46.6867C114.681 46.5827 114.645 46.3813 114.749 46.2339C115.551 45.0993 117.05 45.639 117.116 45.6613C117.283 45.7232 117.369 45.9088 117.308 46.0773C117.246 46.2458 117.064 46.3326 116.892 46.2708C116.847 46.255 115.794 45.8838 115.28 46.6091C115.218 46.6986 115.116 46.746 115.015 46.746Z" fill="black"/>
<path d="M122.192 46.6977C122.1 46.6977 122.007 46.6595 121.943 46.5832C121.805 46.4239 121.355 46.0093 120.922 46.0027C120.707 45.9909 120.518 46.0936 120.336 46.2936C120.212 46.4292 120.005 46.4371 119.87 46.3147C119.736 46.1923 119.728 45.983 119.849 45.8487C120.162 45.5065 120.527 45.3222 120.935 45.3446C121.755 45.3591 122.415 46.1225 122.444 46.1554C122.561 46.2936 122.544 46.5003 122.407 46.6187C122.345 46.6714 122.269 46.6977 122.192 46.6977Z" fill="black"/>
<path d="M109.941 49.1142C109.941 49.1142 109.427 50.7293 111.567 49.3446C113.707 47.9599 113.949 45.6748 115.213 43.0002C116.476 40.3268 118.8 38.7144 120.267 40.6769C121.735 42.6382 121.735 42.6382 121.735 42.6382L118.511 37.8575C118.511 37.8575 113.86 33.1492 108.592 36.9664C102.561 41.3351 104.148 44.4954 104.148 44.4954C104.148 44.4954 106.386 47.2399 109.941 49.1142Z" fill="black"/>
<path d="M109.087 46.7637C109.087 46.7637 109.894 52.442 111.188 52.0208C112.482 51.5996 111.034 45.8594 111.034 45.8594L109.087 46.7637Z" fill="black"/>
<path d="M105.17 49.3843C105.17 49.3843 126.295 42.6845 127.603 40.8799C128.912 39.0766 122.007 40.7285 122.007 40.7285C122.007 40.7285 118.428 32.157 108.972 36.198C100.353 39.8822 105.17 49.3843 105.17 49.3843Z" fill="#F7BE2F"/>
<path d="M175.408 106.825C175.29 106.825 175.176 106.762 175.117 106.651L172.542 101.838C172.458 101.677 172.517 101.478 172.678 101.393C172.838 101.305 173.037 101.366 173.124 101.528L175.699 106.342C175.783 106.503 175.722 106.701 175.563 106.787C175.513 106.813 175.46 106.825 175.408 106.825Z" fill="black"/>
<path d="M178.834 105.233C178.709 105.233 178.59 105.162 178.535 105.042L176.154 99.8879C176.076 99.7221 176.149 99.5273 176.314 99.4509C176.474 99.3733 176.674 99.447 176.75 99.6115L179.132 104.767C179.21 104.932 179.138 105.128 178.972 105.204C178.927 105.224 178.88 105.233 178.834 105.233Z" fill="black"/>
<path d="M145.38 170.786V178.842H127.072V169.825L145.38 170.786Z" fill="#FF9583"/>
<path d="M126.799 202.391C127.877 203.725 170.688 205.266 172.792 205.022C174.917 204.779 174.234 205.18 174.917 204.779C175.6 204.377 174.977 199.062 174.977 199.062C174.977 199.062 174.971 199.015 174.975 198.92C174.95 198.095 174.689 193.517 171.257 191.138C167.478 188.514 160.966 187.353 160.966 187.353C160.966 187.353 149.829 179.482 148.913 179.066C147.996 178.65 147.095 174.561 146.675 174.417C146.275 174.273 127.347 174.617 126.199 175.421C125.336 176.021 125.5 190.045 126.092 197.641C126.294 200.215 126.532 202.056 126.799 202.391Z" fill="#4D7046"/>
<path d="M126.798 202.391C127.876 203.725 170.686 205.266 172.791 205.023C174.916 204.779 174.232 205.181 174.916 204.779C175.599 204.378 174.976 199.063 174.976 199.063C174.976 199.063 174.97 199.015 174.974 198.92C167.787 198.909 148.513 198.789 136.413 198.189C132.182 197.975 128.791 197.795 126.091 197.64C126.293 200.216 126.531 202.056 126.798 202.391Z" fill="#FF611E"/>
<path d="M153.008 173.094C153.008 173.094 166.484 134.84 159.62 122.635C152.754 110.429 103.367 119.26 103.367 119.26L80.6244 120.346C80.6244 120.346 76.0227 142.693 85.6854 148.907C95.3481 155.12 124.51 152.934 124.51 152.934L120.898 173.094H153.008Z" fill="#A55D47"/>
<path d="M144.891 183.452C144.762 183.452 144.639 183.377 144.588 183.25C144.517 183.083 144.596 182.89 144.763 182.819L150.561 180.37C150.734 180.301 150.922 180.378 150.993 180.545C151.064 180.713 150.985 180.906 150.818 180.977L145.02 183.425C144.976 183.444 144.933 183.452 144.891 183.452Z" fill="#FF9E3E"/>
<path d="M148.374 185.663C148.245 185.663 148.124 185.588 148.072 185.462C148 185.295 148.079 185.101 148.247 185.03L154.045 182.582C154.217 182.511 154.407 182.59 154.477 182.757C154.548 182.924 154.469 183.118 154.301 183.189L148.503 185.637C148.46 185.655 148.416 185.663 148.374 185.663Z" fill="#FF9E3E"/>
<path d="M124.51 153.254C124.453 153.254 124.396 153.238 124.344 153.208C124.235 153.142 124.174 153.015 124.194 152.888C124.236 152.586 125.281 145.507 127.834 144.25C128.444 143.949 129.084 143.985 129.737 144.353C130.383 144.718 130.731 145.231 130.768 145.881C130.924 148.641 124.952 153.008 124.698 153.192C124.643 153.233 124.576 153.254 124.51 153.254ZM128.671 144.691C128.481 144.691 128.298 144.736 128.115 144.826C126.459 145.64 125.376 149.883 124.956 152.197C126.864 150.709 130.231 147.7 130.128 145.918C130.104 145.494 129.874 145.165 129.424 144.911C129.162 144.764 128.913 144.691 128.671 144.691Z" fill="white"/>
<path d="M200.929 245.546C217.086 245.546 230.185 232.191 230.185 215.717C230.185 199.243 217.086 185.888 200.929 185.888C184.772 185.888 171.674 199.243 171.674 215.717C171.674 232.191 184.772 245.546 200.929 245.546Z" fill="black"/>
<path d="M54.1548 248.333C70.312 248.333 83.4101 234.978 83.4101 218.504C83.4101 202.03 70.312 188.675 54.1548 188.675C37.9975 188.675 24.8994 202.03 24.8994 218.504C24.8994 234.978 37.9975 248.333 54.1548 248.333Z" fill="black"/>
<path d="M203.906 228.823C211.155 227.187 215.706 219.984 214.071 212.734C212.435 205.485 205.232 200.934 197.982 202.57C190.733 204.205 186.182 211.408 187.818 218.658C189.453 225.907 196.656 230.458 203.906 228.823Z" fill="#994239"/>
<path d="M57.2652 231.582C64.4962 229.867 68.9676 222.614 67.2524 215.383C65.5371 208.152 58.2848 203.681 51.0538 205.396C43.8228 207.111 39.3514 214.364 41.0666 221.595C42.7819 228.826 50.0342 233.297 57.2652 231.582Z" fill="#994239"/>
<path d="M119.554 71.1182C119.554 71.1182 127.352 87.8795 134.767 90.5134C139.255 92.1074 153.628 89.7552 153.628 89.7552L158.259 108.932C158.259 108.932 138.074 122.159 122.738 113.358C112.467 107.464 108.038 97.2434 108.038 97.2434L119.554 71.1182Z" fill="#FF611E"/>
<path d="M129.674 97.5101C129.45 97.5101 129.248 97.4127 129.102 97.2324C128.598 96.6098 128.432 95.9267 128.61 95.204C129.255 92.5715 134.416 90.3062 134.636 90.2114C134.766 90.1562 134.916 90.1877 135.01 90.2917C135.105 90.3957 135.123 90.5484 135.054 90.6721C134.441 91.7896 131.299 97.368 129.745 97.5062C129.721 97.5088 129.697 97.5101 129.674 97.5101ZM133.966 91.2645C132.471 92.0292 129.666 93.6653 129.25 95.3607C129.122 95.8806 129.242 96.3571 129.614 96.8178C130.467 96.777 132.5 93.7891 133.966 91.2645Z" fill="white"/>
<path d="M117.081 125.574C117.081 125.574 120.683 91.8461 121.13 84.2025C121.417 79.3073 121.403 71.6954 121.403 71.6954C121.403 71.6954 121.741 69.0918 121.54 67.9967C121.339 66.9015 108.174 58.9052 106.617 59.15C105.061 59.3962 106.836 62.646 106.836 62.646C106.836 62.646 92.1854 62.2643 83.8614 81.2409C77.8895 94.8551 76.1533 121.506 76.1533 121.506L117.081 125.574Z" fill="#FF611E"/>
<path d="M112.048 65.76C111.996 65.76 111.943 65.7481 111.893 65.7218L106.679 62.9379C106.52 62.8524 106.46 62.6523 106.544 62.493C106.629 62.3311 106.829 62.2719 106.99 62.3574L112.204 65.1413C112.363 65.2269 112.424 65.427 112.339 65.5862C112.28 65.6968 112.166 65.76 112.048 65.76Z" fill="white"/>
<path d="M115.577 84.6101C115.577 84.6101 116.102 69.4415 108.152 64.9385C100.203 60.4356 86.6439 64.0382 86.6439 64.0382L85.0552 78.7501C85.0552 78.7501 95.093 65.4308 106.953 69.527C115.815 72.5874 115.577 84.6101 115.577 84.6101Z" fill="#507849"/>
<path d="M98.7755 113.522C98.7755 113.522 89.251 111.405 83.6437 108.028C78.0364 104.65 76.5516 95.3232 76.5516 95.3232L74.5088 111.519C74.5088 111.519 83.5858 116.298 98.7755 113.522Z" fill="#507849"/>
<path d="M120.682 90.9868C120.682 90.9868 123.914 78.5046 123.308 76.217C122.701 73.9293 121.402 72.7578 121.402 72.7578L120.682 90.9868Z" fill="#507849"/>
<path d="M181.84 120.313C181.84 120.313 186.554 137.729 188.984 151.426C191.396 165.027 190.266 181.985 190.266 181.985C190.266 181.985 197.375 177.524 211.592 181.985C225.81 186.445 224.195 197.64 224.195 197.64C224.195 197.64 214.326 188.675 199.015 195.924C183.703 203.172 180.969 215.439 179.329 215.996C177.689 216.554 166.752 215.996 166.752 215.996C166.752 215.996 166.204 221.013 162.376 223.244C158.549 225.474 88.5524 224.359 86.9123 223.244C85.2722 222.129 86.9123 214.324 86.9123 214.324C86.9123 214.324 22.7614 214.079 20.5751 212.964C18.3874 211.849 37.1495 178.082 63.9447 168.047C90.74 158.01 121.911 163.029 123.551 167.488C125.191 171.949 113.161 178.082 111.52 189.233C109.88 200.385 131.465 209.95 151.47 203.944C179.355 195.572 163.839 121.482 163.839 121.482L181.84 120.313Z" fill="#FF9E3E"/>
<path d="M72.6146 171.391H122.701C125.375 171.391 127.542 169.223 127.542 166.55V157.833C127.542 155.16 125.375 152.992 122.701 152.992H72.6146C69.9413 152.992 67.7734 155.16 67.7734 157.833V166.55C67.7734 169.223 69.94 171.391 72.6146 171.391Z" fill="#A0463A"/>
<path d="M164.847 130.019H182.247C185.132 130.019 187.471 127.68 187.471 124.795V110.711C187.471 107.825 185.132 105.486 182.247 105.486H164.847C161.962 105.486 159.623 107.825 159.623 110.711V124.795C159.623 127.68 161.962 130.019 164.847 130.019Z" fill="#A0463A"/>
<path d="M136.537 172.367V180.424H118.229V171.407L136.537 172.367Z" fill="#FF9583"/>
<path d="M117.955 203.971C119.033 205.305 161.843 206.846 163.948 206.602C166.072 206.359 165.389 206.76 166.072 206.359C166.756 205.958 166.133 200.642 166.133 200.642C166.133 200.642 166.126 200.595 166.13 200.5C166.105 199.675 165.845 195.098 162.413 192.718C158.634 190.094 152.121 188.933 152.121 188.933C152.121 188.933 140.984 181.062 140.068 180.646C139.152 180.23 138.251 176.141 137.831 175.997C137.431 175.853 118.503 176.197 117.355 177C116.491 177.6 116.656 191.623 117.248 199.22C117.45 201.795 117.688 203.636 117.955 203.971Z" fill="#507849"/>
<path d="M117.956 203.971C119.034 205.305 161.845 206.846 163.949 206.603C166.074 206.359 165.391 206.761 166.074 206.359C166.757 205.958 166.134 200.643 166.134 200.643C166.134 200.643 166.128 200.595 166.132 200.5C158.945 200.489 139.671 200.369 127.572 199.769C123.34 199.555 119.949 199.375 117.25 199.22C117.451 201.796 117.689 203.636 117.956 203.971Z" fill="#FF611E"/>
<path d="M144.809 174.674C144.809 174.674 157.274 136.421 150.925 124.215C144.574 112.009 98.8925 120.84 98.8925 120.84L77.8572 121.926C77.8572 121.926 73.6017 144.273 82.5392 150.487C91.4766 156.7 118.451 154.514 118.451 154.514L115.11 174.674H144.809Z" fill="#B56A4D"/>
<path d="M136.048 185.035C135.919 185.035 135.798 184.96 135.745 184.833C135.674 184.666 135.753 184.473 135.92 184.402L141.719 181.953C141.891 181.884 142.081 181.961 142.15 182.128C142.221 182.296 142.142 182.489 141.975 182.56L136.177 185.008C136.134 185.025 136.09 185.035 136.048 185.035Z" fill="#FF9E3E"/>
<path d="M139.533 187.244C139.404 187.244 139.283 187.169 139.231 187.043C139.16 186.876 139.239 186.682 139.406 186.611L145.204 184.163C145.376 184.094 145.566 184.171 145.636 184.338C145.707 184.505 145.628 184.698 145.461 184.77L139.662 187.218C139.62 187.236 139.576 187.244 139.533 187.244Z" fill="#FF9E3E"/>
<path d="M115.667 154.844C115.607 154.844 115.549 154.829 115.497 154.797C115.384 154.729 115.322 154.6 115.342 154.468C115.384 154.166 116.43 147.082 118.986 145.824C119.601 145.523 120.242 145.557 120.899 145.928C121.548 146.294 121.895 146.81 121.933 147.464C122.091 150.228 116.114 154.597 115.86 154.781C115.804 154.823 115.735 154.844 115.667 154.844ZM119.829 146.282C119.64 146.282 119.459 146.327 119.278 146.415C117.631 147.226 116.55 151.438 116.126 153.757C118.036 152.266 121.377 149.274 121.275 147.501C121.252 147.081 121.023 146.753 120.575 146.502C120.316 146.354 120.067 146.282 119.829 146.282Z" fill="white"/>
<path d="M163.84 108.27C163.84 111.664 166.593 114.415 169.986 114.415C173.381 114.415 176.132 111.664 176.132 108.27C176.132 104.875 173.381 102.124 169.986 102.124C166.591 102.124 163.84 104.875 163.84 108.27Z" fill="black"/>
<path d="M35.7468 199.328C35.6889 199.328 35.6297 199.312 35.577 199.28C35.4217 199.185 35.3717 198.984 35.4665 198.829C42.7454 186.814 58.7578 177.127 58.9197 177.03C59.0737 176.935 59.2764 176.987 59.3712 177.143C59.4647 177.299 59.4146 177.501 59.258 177.595C59.0987 177.691 43.2232 187.296 36.0298 199.17C35.9666 199.271 35.8587 199.328 35.7468 199.328Z" fill="white"/>
<path d="M185.202 182.228C185.166 182.228 185.13 182.223 185.094 182.21C184.922 182.15 184.832 181.962 184.891 181.791C186.605 176.86 185.664 162.359 185.655 162.213C185.642 162.031 185.78 161.875 185.96 161.863C186.173 161.839 186.297 161.989 186.31 162.17C186.351 162.771 187.268 176.95 185.514 182.007C185.465 182.143 185.338 182.228 185.202 182.228Z" fill="white"/>
<path d="M151.146 100.668C151.146 100.668 161.361 94.2895 164.942 93.8762C168.522 93.4629 176.184 103.914 174.625 104.839C173.067 105.763 170.796 103.69 170.796 103.69C170.796 103.69 173.279 105.874 172.038 106.907C170.796 107.942 167.211 106.694 167.211 106.694C167.211 106.694 157.764 117.752 147.613 111.251C138.743 105.57 151.146 100.668 151.146 100.668Z" fill="#F98575"/>
<path d="M170.797 104.02C170.734 104.02 170.671 104.002 170.614 103.965L166.068 100.943C165.918 100.843 165.876 100.637 165.977 100.487C166.077 100.336 166.28 100.294 166.434 100.395L170.98 103.417C171.13 103.517 171.173 103.721 171.071 103.873C171.008 103.969 170.904 104.02 170.797 104.02Z" fill="black"/>
<path d="M173.062 100.998C172.993 100.998 172.924 100.977 172.865 100.932L168.328 97.5176C168.183 97.4083 168.153 97.2017 168.262 97.0569C168.374 96.9108 168.581 96.8831 168.724 96.9924L173.261 100.407C173.406 100.516 173.436 100.723 173.327 100.867C173.26 100.953 173.161 100.998 173.062 100.998Z" fill="black"/>
<path d="M152.725 96.1419L154.174 116.378C154.174 116.378 109.705 129.083 97.7694 114.397C85.8335 99.7117 95.5002 64.7819 106.525 68.0976C114.406 70.4668 116.374 89.6567 116.374 89.6567L152.725 96.1419Z" fill="#FF611E"/>
<path d="M111.755 90.4291C110.408 90.4291 109.202 90.254 108.805 89.692C108.652 89.4748 108.531 89.1075 108.823 88.5797C110.253 85.9972 115.896 89.0141 116.535 89.3682C116.658 89.4353 116.725 89.5735 116.7 89.7117C116.676 89.8486 116.568 89.9578 116.431 89.9815C115.786 90.0895 113.632 90.4291 111.755 90.4291ZM110.937 88.2072C110.24 88.2072 109.675 88.3994 109.398 88.8983C109.246 89.1747 109.318 89.2773 109.342 89.3116C109.803 89.9605 112.834 89.8236 115.312 89.484C114.057 88.893 112.257 88.2072 110.937 88.2072Z" fill="white"/>
<path d="M49.3714 112.023L75.4322 115.31C78.6847 115.72 81.6542 113.416 82.0635 110.163L87.6248 66.0787C88.0354 62.8262 85.7306 59.8567 82.4782 59.4474L56.4174 56.1607C53.1649 55.75 50.1954 58.0548 49.786 61.3073L44.2261 105.392C43.8154 108.644 46.1189 111.614 49.3714 112.023Z" fill="#4D7046"/>
<path d="M52.7475 112.45L78.8083 115.737C82.0608 116.147 85.0303 113.842 85.4396 110.59L90.9995 66.5055C91.4102 63.253 89.1054 60.2848 85.8529 59.8741L59.7921 56.5874C56.5397 56.1767 53.5702 58.4815 53.1608 61.734L47.5996 105.818C47.1915 109.07 49.495 112.039 52.7475 112.45Z" fill="#507849"/>
<path d="M87.8579 84.1368C87.8171 84.1342 50.9234 79.4799 50.9234 79.4799C50.7431 79.4575 50.6154 79.2917 50.6378 79.1127C50.6615 78.9323 50.8286 78.8033 51.005 78.827L87.8987 83.4813C88.079 83.5037 88.2067 83.6683 88.1843 83.8486C88.1646 84.0157 88.0211 84.1368 87.8579 84.1368Z" fill="#E8821C"/>
</svg>
