<svg width="150" height="152" viewBox="0 0 150 152" fill="none" xmlns="http://www.w3.org/2000/svg">
<path d="M99.6281 42.3317C99.6281 42.3317 108.188 41.772 110.574 42.719C112.96 43.6659 114.245 52.8069 112.955 52.8623C111.666 52.9176 110.94 50.8512 110.94 50.8512C110.94 50.8512 111.763 53.0573 110.635 53.2879C109.508 53.5185 107.678 51.5272 107.678 51.5272C107.678 51.5272 98.0239 55.283 93.8443 47.7826C90.1917 41.2273 99.6281 42.3317 99.6281 42.3317Z" fill="#ED7569"/>
<path d="M63.8388 14.9653L63.2153 20.1978C63.2153 20.1978 63.9794 21.8141 67.0115 22.4273C69.27 22.8838 70.1326 22.4638 70.1326 22.4638L70.1297 19.7759L70.1241 17.1545L64.7417 15.2803L63.8388 14.9653Z" fill="#F77E6D"/>
<path d="M64.742 15.2808C64.7382 15.4251 64.7729 15.6005 64.8338 15.8039C65.6936 18.5575 68.8268 19.5016 70.13 19.7763L70.1244 17.1549L64.742 15.2808Z" fill="black"/>
<path d="M72.7099 5.36711C72.7099 5.36711 74.675 12.2543 73.158 15.771C71.6411 19.2868 68.3897 18.263 66.493 17.288C64.5964 16.3129 63.836 14.9666 63.836 14.9666C63.836 14.9666 61.8906 15.3463 60.879 13.4487C59.8674 11.5502 60.9015 9.66669 62.0256 9.35448C63.1498 9.04228 64.3095 9.97983 64.3095 9.97983L63.5744 7.95567C63.5744 7.95567 69.0366 -1.08883 72.7099 5.36711Z" fill="#F77E6D"/>
<path d="M71.3254 13.6183C71.2917 13.6183 71.2579 13.6108 71.226 13.5958C71.1089 13.5405 71.0582 13.4008 71.1135 13.2836C71.6461 12.1539 70.941 10.7419 70.9345 10.7288C70.8754 10.6135 70.9213 10.4728 71.0367 10.4138C71.1529 10.3547 71.2935 10.4016 71.3517 10.516C71.3854 10.5816 72.1692 12.1445 71.5383 13.4842C71.4979 13.5686 71.4135 13.6183 71.3254 13.6183Z" fill="black"/>
<path d="M63.6319 13.0159C63.5588 13.0159 63.4866 12.9812 63.4407 12.9174L61.9396 10.7967C61.8646 10.6908 61.8899 10.5445 61.9959 10.4695C62.1018 10.3954 62.2471 10.4198 62.3231 10.5257L63.8241 12.6465C63.8991 12.7524 63.8738 12.8987 63.7679 12.9737C63.7266 13.0018 63.6788 13.0159 63.6319 13.0159Z" fill="black"/>
<path d="M61.8345 12.2495C61.706 12.2495 61.601 12.1464 61.6001 12.017C61.5992 11.8876 61.7023 11.7817 61.8326 11.7807L63.0796 11.7686C63.2099 11.7686 63.3149 11.8717 63.3158 12.0001C63.3167 12.1295 63.2136 12.2355 63.0833 12.2373L61.8363 12.2495H61.8345Z" fill="black"/>
<path d="M69.1384 15.3357C68.905 15.3357 68.6584 15.2766 68.4231 15.1144C67.6393 14.5735 67.4912 13.6097 67.4855 13.5684C67.4724 13.4822 67.509 13.3959 67.5802 13.3453C67.6506 13.2947 67.7443 13.2872 67.8221 13.3256L70.2438 14.5303C70.316 14.566 70.3648 14.6372 70.3732 14.7169C70.3807 14.7975 70.3469 14.8763 70.2822 14.926C70.2532 14.9485 69.7385 15.3357 69.1384 15.3357ZM68.1034 13.9884C68.2131 14.235 68.3959 14.5247 68.6894 14.7291C69.0025 14.9438 69.3738 14.866 69.64 14.7525L68.1034 13.9884Z" fill="black"/>
<path d="M68.7237 10.7779C68.5905 10.776 68.4874 10.67 68.4893 10.5407L68.5062 9.30872C68.508 9.18028 68.6121 9.07715 68.7406 9.07715C68.8737 9.07902 68.9768 9.18497 68.9749 9.31435L68.9581 10.5463C68.9562 10.6747 68.8521 10.7779 68.7237 10.7779Z" fill="black"/>
<path d="M72.3591 10.9975C72.2298 10.9975 72.1257 10.8935 72.1248 10.7641L72.1182 9.53122C72.1172 9.40184 72.2213 9.2959 72.3516 9.2959C72.4819 9.2959 72.586 9.39997 72.5869 9.52935L72.5935 10.7622C72.5945 10.8916 72.4895 10.9966 72.3591 10.9975Z" fill="black"/>
<path d="M67.9248 8.29325C67.8779 8.29325 67.832 8.27919 67.7907 8.25106C67.6866 8.17699 67.6613 8.03355 67.7354 7.92854C68.3064 7.12038 69.3742 7.50477 69.4211 7.52071C69.5402 7.56478 69.6011 7.69697 69.558 7.81698C69.5139 7.93698 69.3845 7.99886 69.2617 7.9548C69.2298 7.94355 68.4798 7.67916 68.1132 8.19574C68.0692 8.2595 67.997 8.29325 67.9248 8.29325Z" fill="black"/>
<path d="M73.0364 8.25709C72.9708 8.25709 72.9042 8.2299 72.8592 8.17552C72.7608 8.06208 72.4401 7.76675 72.1317 7.76206C71.9789 7.75363 71.8438 7.82676 71.7145 7.96926C71.6263 8.06583 71.4782 8.07145 71.3826 7.98426C71.2869 7.89707 71.2813 7.748 71.3676 7.65237C71.5907 7.40861 71.8504 7.27735 72.1411 7.29329C72.7251 7.30361 73.1949 7.84738 73.2155 7.87082C73.2989 7.96926 73.2867 8.11646 73.1892 8.20084C73.1451 8.23834 73.0908 8.25709 73.0364 8.25709Z" fill="black"/>
<path d="M64.3104 9.97904C64.3104 9.97904 63.9438 11.1294 65.4683 10.1431C66.9927 9.15682 67.1652 7.52924 68.0653 5.62415C68.9653 3.71999 70.6201 2.5715 71.6655 3.96938C72.7108 5.36632 72.7108 5.36632 72.7108 5.36632L70.4148 1.96116C70.4148 1.96116 67.1015 -1.39244 63.3494 1.32644C59.0536 4.43815 60.1843 6.6892 60.1843 6.6892C60.1843 6.6892 61.7781 8.64398 64.3104 9.97904Z" fill="black"/>
<path d="M63.7017 8.30474C63.7017 8.30474 64.2764 12.3493 65.198 12.0493C66.1196 11.7493 65.0883 7.66064 65.0883 7.66064L63.7017 8.30474Z" fill="black"/>
<path d="M60.9116 10.1723C60.9116 10.1723 75.9582 5.40021 76.8902 4.11483C77.8221 2.8304 72.9037 4.00701 72.9037 4.00701C72.9037 4.00701 70.3545 -2.09828 63.6192 0.779985C57.4802 3.40417 60.9116 10.1723 60.9116 10.1723Z" fill="#F7BE2F"/>
<path d="M110.94 51.0854C110.857 51.0854 110.775 51.0404 110.733 50.9617L108.899 47.5331C108.839 47.4187 108.881 47.2771 108.996 47.2162C109.11 47.1533 109.252 47.1974 109.314 47.3127L111.148 50.7413C111.208 50.8557 111.164 50.9973 111.051 51.0582C111.015 51.077 110.978 51.0854 110.94 51.0854Z" fill="black"/>
<path d="M113.38 49.9517C113.291 49.9517 113.206 49.9011 113.167 49.8158L111.471 46.1444C111.416 46.0262 111.467 45.8875 111.585 45.8331C111.699 45.7778 111.841 45.8303 111.896 45.9475L113.593 49.6199C113.648 49.737 113.596 49.8767 113.478 49.9311C113.446 49.9452 113.413 49.9517 113.38 49.9517Z" fill="black"/>
<path d="M89.552 96.6434V102.381H76.5117V95.959L89.552 96.6434Z" fill="#FF9583"/>
<path d="M76.3179 119.155C77.0857 120.105 107.578 121.202 109.078 121.029C110.591 120.856 110.104 121.141 110.591 120.856C111.077 120.57 110.634 116.784 110.634 116.784C110.634 116.784 110.629 116.75 110.632 116.683C110.614 116.095 110.429 112.834 107.984 111.14C105.293 109.27 100.654 108.443 100.654 108.443C100.654 108.443 92.7211 102.837 92.0686 102.541C91.4161 102.244 90.7739 99.3323 90.4748 99.2292C90.1898 99.127 76.7079 99.3717 75.8903 99.9445C75.2753 100.372 75.3925 110.361 75.8144 115.771C75.9579 117.605 76.1275 118.916 76.3179 119.155Z" fill="#4D7046"/>
<path d="M76.3174 119.155C77.0853 120.104 107.578 121.202 109.077 121.029C110.59 120.855 110.104 121.141 110.59 120.855C111.077 120.569 110.633 116.783 110.633 116.783C110.633 116.783 110.629 116.75 110.632 116.682C105.513 116.674 91.7841 116.588 83.1662 116.161C80.152 116.009 77.7369 115.881 75.814 115.77C75.9574 117.605 76.1271 118.915 76.3174 119.155Z" fill="#FF611E"/>
<path d="M94.9859 98.2868C94.9859 98.2868 104.584 71.0399 99.6952 62.346C94.805 53.6522 59.6273 59.9421 59.6273 59.9421L43.4284 60.7156C43.4284 60.7156 40.1508 76.6333 47.0333 81.0594C53.9158 85.4846 74.6871 83.9274 74.6871 83.9274L72.1145 98.2868H94.9859Z" fill="#A55D47"/>
<path d="M89.2035 105.665C89.1116 105.665 89.0244 105.611 88.9879 105.521C88.9372 105.402 88.9935 105.264 89.1125 105.214L93.2424 103.47C93.3653 103.42 93.4993 103.476 93.5499 103.595C93.6006 103.714 93.5443 103.851 93.4252 103.902L89.2953 105.646C89.2644 105.659 89.2335 105.665 89.2035 105.665Z" fill="#FF9E3E"/>
<path d="M91.6854 107.239C91.5936 107.239 91.5073 107.186 91.4698 107.096C91.4192 106.977 91.4754 106.839 91.5945 106.788L95.7244 105.044C95.8472 104.994 95.9822 105.05 96.0319 105.169C96.0825 105.288 96.0263 105.426 95.9072 105.477L91.7773 107.221C91.7464 107.234 91.7154 107.239 91.6854 107.239Z" fill="#FF9E3E"/>
<path d="M74.6871 84.1548C74.6468 84.1548 74.6056 84.1435 74.569 84.1219C74.4912 84.0751 74.448 83.9851 74.4621 83.8941C74.4921 83.6794 75.2365 78.6373 77.0544 77.742C77.4895 77.5273 77.9451 77.5526 78.4101 77.8151C78.8704 78.0748 79.118 78.4404 79.1442 78.9036C79.2558 80.8696 75.0021 83.9794 74.8212 84.1107C74.7818 84.1398 74.734 84.1548 74.6871 84.1548ZM77.6507 78.056C77.5157 78.056 77.3854 78.0879 77.2551 78.1517C76.0756 78.732 75.304 81.7537 75.005 83.4019C76.3635 82.3425 78.7617 80.1993 78.6886 78.9298C78.6717 78.6279 78.5076 78.3935 78.187 78.2126C78.0004 78.1076 77.8232 78.056 77.6507 78.056Z" fill="white"/>
<path d="M129.12 149.893C140.628 149.893 149.957 140.381 149.957 128.647C149.957 116.912 140.628 107.4 129.12 107.4C117.611 107.4 108.282 116.912 108.282 128.647C108.282 140.381 117.611 149.893 129.12 149.893Z" fill="black"/>
<path d="M24.5747 151.878C36.0831 151.878 45.4126 142.365 45.4126 130.631C45.4126 118.897 36.0831 109.384 24.5747 109.384C13.0662 109.384 3.73682 118.897 3.73682 130.631C3.73682 142.365 13.0662 151.878 24.5747 151.878Z" fill="black"/>
<path d="M131.239 137.982C136.403 136.817 139.644 131.686 138.479 126.523C137.314 121.359 132.184 118.117 127.02 119.283C121.856 120.448 118.615 125.578 119.78 130.742C120.945 135.905 126.076 139.147 131.239 137.982Z" fill="#994239"/>
<path d="M26.79 139.947C31.9405 138.725 35.1253 133.559 33.9036 128.409C32.6819 123.258 27.5162 120.074 22.3658 121.295C17.2153 122.517 14.0304 127.683 15.2521 132.833C16.4739 137.984 21.6395 141.168 26.79 139.947Z" fill="#994239"/>
<path d="M71.1572 25.6514C71.1572 25.6514 76.7112 37.5901 81.9933 39.4661C85.1894 40.6015 95.4274 38.9261 95.4274 38.9261L98.7257 52.5852C98.7257 52.5852 84.3484 62.0066 73.4251 55.7381C66.1094 51.5398 62.9546 44.2598 62.9546 44.2598L71.1572 25.6514Z" fill="#FF611E"/>
<path d="M78.3643 44.4502C78.2049 44.4502 78.0615 44.3809 77.9574 44.2524C77.5983 43.809 77.4802 43.3224 77.6068 42.8077C78.0662 40.9326 81.7423 39.3191 81.8989 39.2516C81.9917 39.2122 82.0986 39.2347 82.1651 39.3088C82.2326 39.3828 82.2458 39.4916 82.197 39.5797C81.7601 40.3757 79.5222 44.349 78.4149 44.4474C78.3981 44.4493 78.3812 44.4502 78.3643 44.4502ZM81.4217 40.0016C80.3566 40.5463 78.3587 41.7117 78.0624 42.9192C77.9715 43.2896 78.0568 43.629 78.3221 43.9571C78.9297 43.928 80.3772 41.7998 81.4217 40.0016Z" fill="white"/>
<path d="M69.3962 64.4402C69.3962 64.4402 71.9613 40.4166 72.28 34.9722C72.4844 31.4855 72.4741 26.0637 72.4741 26.0637C72.4741 26.0637 72.7151 24.2092 72.5716 23.4292C72.4291 22.6491 63.0518 16.9536 61.9427 17.1279C60.8345 17.3033 62.0983 19.6181 62.0983 19.6181C62.0983 19.6181 51.6634 19.3462 45.7344 32.8628C41.4808 42.5598 40.2441 61.5423 40.2441 61.5423L69.3962 64.4402Z" fill="#FF611E"/>
<path d="M65.8112 21.8357C65.7737 21.8357 65.7361 21.8272 65.7005 21.8085L61.9869 19.8256C61.8735 19.7646 61.8303 19.6221 61.8903 19.5087C61.9513 19.3934 62.0938 19.3512 62.2082 19.4121L65.9218 21.395C66.0352 21.456 66.0784 21.5985 66.0184 21.7119C65.9762 21.7907 65.8946 21.8357 65.8112 21.8357Z" fill="white"/>
<path d="M68.3238 35.2624C68.3238 35.2624 68.6979 24.4581 63.0351 21.2508C57.3732 18.0435 47.7156 20.6095 47.7156 20.6095L46.584 31.0885C46.584 31.0885 53.7337 21.6014 62.181 24.5191C68.4935 26.6989 68.3238 35.2624 68.3238 35.2624Z" fill="#507849"/>
<path d="M56.3573 55.8556C56.3573 55.8556 49.5733 54.348 45.5793 51.9422C41.5854 49.5365 40.5278 42.8931 40.5278 42.8931L39.0728 54.4286C39.0728 54.4286 45.5381 57.8328 56.3573 55.8556Z" fill="#507849"/>
<path d="M71.9604 39.8034C71.9604 39.8034 74.2631 30.9127 73.8308 29.2832C73.3986 27.6537 72.4733 26.8193 72.4733 26.8193L71.9604 39.8034Z" fill="#507849"/>
<path d="M115.522 60.6919C115.522 60.6919 118.88 73.0966 120.61 82.8526C122.329 92.5403 121.524 104.619 121.524 104.619C121.524 104.619 126.587 101.441 136.714 104.619C146.841 107.796 145.691 115.77 145.691 115.77C145.691 115.77 138.661 109.384 127.755 114.547C116.849 119.71 114.902 128.447 113.733 128.844C112.565 129.241 104.775 128.844 104.775 128.844C104.775 128.844 104.385 132.418 101.659 134.007C98.9324 135.595 49.0756 134.801 47.9075 134.007C46.7393 133.213 47.9075 127.653 47.9075 127.653C47.9075 127.653 2.21433 127.479 0.657068 126.685C-0.901132 125.891 12.4626 101.839 31.5482 94.691C50.6338 87.5422 72.8359 91.1171 74.004 94.2935C75.1722 97.4709 66.604 101.839 65.4349 109.782C64.2667 117.725 79.6415 124.538 93.8903 120.26C113.752 114.297 102.7 61.5244 102.7 61.5244L115.522 60.6919Z" fill="#FF9E3E"/>
<path d="M37.7232 97.0733H73.3986C75.3028 97.0733 76.8469 95.5291 76.8469 93.625V87.4165C76.8469 85.5124 75.3028 83.9683 73.3986 83.9683H37.7232C35.819 83.9683 34.2749 85.5124 34.2749 87.4165V93.625C34.2749 95.5291 35.8181 97.0733 37.7232 97.0733Z" fill="#A0463A"/>
<path d="M103.419 67.6053H115.812C117.867 67.6053 119.533 65.9393 119.533 63.8842V53.8525C119.533 51.7974 117.867 50.1313 115.812 50.1313H103.419C101.364 50.1313 99.6978 51.7974 99.6978 53.8525V63.8842C99.6978 65.9393 101.364 67.6053 103.419 67.6053Z" fill="#A0463A"/>
<path d="M83.2542 97.7694V103.508H70.2139V97.0859L83.2542 97.7694Z" fill="#FF9583"/>
<path d="M70.0171 120.281C70.7849 121.231 101.278 122.328 102.777 122.155C104.29 121.982 103.803 122.267 104.29 121.982C104.777 121.696 104.333 117.91 104.333 117.91C104.333 117.91 104.328 117.876 104.331 117.808C104.313 117.221 104.128 113.961 101.684 112.266C98.9919 110.396 94.353 109.569 94.353 109.569C94.353 109.569 86.4204 103.963 85.7678 103.667C85.1153 103.37 84.4731 100.458 84.174 100.355C83.889 100.253 70.4071 100.498 69.5896 101.07C68.9745 101.497 69.0917 111.486 69.5136 116.896C69.6571 118.731 69.8268 120.042 70.0171 120.281Z" fill="#507849"/>
<path d="M70.0181 120.281C70.786 121.23 101.279 122.328 102.778 122.155C104.291 121.981 103.804 122.267 104.291 121.981C104.778 121.695 104.334 117.909 104.334 117.909C104.334 117.909 104.329 117.876 104.332 117.808C99.2133 117.8 85.4848 117.714 76.8669 117.287C73.8527 117.135 71.4376 117.007 69.5146 116.896C69.6581 118.731 69.8278 120.041 70.0181 120.281Z" fill="#FF611E"/>
<path d="M89.1462 99.4128C89.1462 99.4128 98.0248 72.1658 93.5021 63.472C88.9784 54.7781 56.4409 61.0681 56.4409 61.0681L41.458 61.8416C41.458 61.8416 38.4269 77.7592 44.7928 82.1854C51.1588 86.6106 70.3719 85.0533 70.3719 85.0533L67.9924 99.4128H89.1462Z" fill="#B56A4D"/>
<path d="M82.9057 106.792C82.8138 106.792 82.7275 106.738 82.69 106.648C82.6394 106.529 82.6956 106.391 82.8147 106.341L86.9446 104.597C87.0674 104.547 87.2024 104.602 87.2521 104.722C87.3027 104.841 87.2465 104.978 87.1274 105.029L82.9975 106.773C82.9666 106.785 82.9357 106.792 82.9057 106.792Z" fill="#FF9E3E"/>
<path d="M85.3881 108.365C85.2962 108.365 85.2099 108.312 85.1724 108.222C85.1218 108.103 85.178 107.965 85.2971 107.914L89.427 106.171C89.5498 106.122 89.6848 106.176 89.7345 106.295C89.7851 106.414 89.7289 106.552 89.6098 106.603L85.4799 108.347C85.4499 108.36 85.4181 108.365 85.3881 108.365Z" fill="#FF9E3E"/>
<path d="M68.388 85.2873C68.3458 85.2873 68.3045 85.276 68.267 85.2535C68.1864 85.2048 68.1423 85.1129 68.1564 85.0191C68.1864 84.8045 68.9317 79.7586 70.7524 78.8623C71.1903 78.6476 71.6469 78.672 72.1147 78.9364C72.5769 79.197 72.8244 79.5645 72.8516 80.0305C72.9641 81.9993 68.7067 85.111 68.5258 85.2423C68.4855 85.2723 68.4367 85.2873 68.388 85.2873ZM71.3525 79.1886C71.2184 79.1886 71.089 79.2204 70.9606 79.2833C69.7868 79.8608 69.017 82.8609 68.7152 84.5129C70.0755 83.4506 72.455 81.3196 72.3828 80.0567C72.366 79.7576 72.2028 79.5242 71.8841 79.3451C71.6994 79.2401 71.5222 79.1886 71.3525 79.1886Z" fill="white"/>
<path d="M102.701 52.1147C102.701 54.5326 104.662 56.4921 107.079 56.4921C109.497 56.4921 111.456 54.5326 111.456 52.1147C111.456 49.6968 109.497 47.7373 107.079 47.7373C104.661 47.7373 102.701 49.6968 102.701 52.1147Z" fill="black"/>
<path d="M11.4629 116.973C11.4216 116.973 11.3795 116.962 11.342 116.939C11.2313 116.872 11.1957 116.728 11.2632 116.618C16.4478 108.06 27.8531 101.16 27.9684 101.091C28.0781 101.024 28.2225 101.06 28.29 101.172C28.3565 101.282 28.3209 101.427 28.2093 101.493C28.0959 101.562 16.7881 108.403 11.6645 116.861C11.6195 116.933 11.5426 116.973 11.4629 116.973Z" fill="white"/>
<path d="M117.916 104.793C117.891 104.793 117.865 104.789 117.84 104.779C117.717 104.737 117.653 104.603 117.695 104.481C118.916 100.969 118.245 90.6404 118.239 90.5363C118.23 90.4069 118.328 90.2954 118.456 90.2869C118.608 90.27 118.696 90.3769 118.706 90.5054C118.735 90.9338 119.388 101.033 118.139 104.635C118.104 104.732 118.013 104.793 117.916 104.793Z" fill="white"/>
<path d="M93.6592 46.7002C93.6592 46.7002 100.935 42.1569 103.486 41.8625C106.036 41.5681 111.493 49.0122 110.383 49.6713C109.273 50.3295 107.656 48.8528 107.656 48.8528C107.656 48.8528 109.424 50.4082 108.54 51.1442C107.656 51.8811 105.102 50.9923 105.102 50.9923C105.102 50.9923 98.3732 58.8686 91.1428 54.2381C84.8247 50.1917 93.6592 46.7002 93.6592 46.7002Z" fill="#F98575"/>
<path d="M107.656 49.0877C107.611 49.0877 107.566 49.0746 107.526 49.0483L104.288 46.8957C104.181 46.8245 104.151 46.6782 104.223 46.5713C104.294 46.4635 104.439 46.4335 104.548 46.5057L107.787 48.6583C107.894 48.7296 107.924 48.8749 107.851 48.9827C107.806 49.0511 107.732 49.0877 107.656 49.0877Z" fill="black"/>
<path d="M109.27 46.9341C109.22 46.9341 109.171 46.9191 109.129 46.8872L105.897 44.4552C105.794 44.3774 105.773 44.2302 105.851 44.1271C105.93 44.023 106.077 44.0033 106.18 44.0811L109.411 46.5131C109.514 46.5909 109.536 46.7381 109.458 46.8413C109.41 46.9022 109.34 46.9341 109.27 46.9341Z" fill="black"/>
<path d="M94.7842 43.4757L95.8165 57.8895C95.8165 57.8895 64.1425 66.9387 55.6408 56.4785C47.1392 46.0183 54.0245 21.1387 61.8774 23.5004C67.4904 25.188 68.8921 38.8564 68.8921 38.8564L94.7842 43.4757Z" fill="#FF611E"/>
<path d="M65.6021 39.4071C64.643 39.4071 63.7842 39.2824 63.501 38.882C63.3923 38.7273 63.306 38.4658 63.5141 38.0898C64.5323 36.2503 68.5516 38.3992 69.0072 38.6514C69.0944 38.6992 69.1422 38.7977 69.1244 38.8961C69.1075 38.9936 69.0306 39.0714 68.9331 39.0883C68.4737 39.1652 66.939 39.4071 65.6021 39.4071ZM65.0198 37.8245C64.5229 37.8245 64.1207 37.9614 63.9238 38.3167C63.8151 38.5136 63.8667 38.5867 63.8835 38.6111C64.2117 39.0733 66.3708 38.9758 68.1362 38.7339C67.2418 38.3129 65.9602 37.8245 65.0198 37.8245Z" fill="white"/>
<path d="M21.1674 54.7875L39.7298 57.1286C42.0465 57.4211 44.1616 55.7794 44.4532 53.4628L48.4143 22.0625C48.7068 19.7458 47.0652 17.6307 44.7485 17.3392L26.186 14.9981C23.8694 14.7056 21.7543 16.3472 21.4627 18.6639L17.5025 50.0642C17.21 52.3808 18.8507 54.4959 21.1674 54.7875Z" fill="#4D7046"/>
<path d="M23.5722 55.0917L42.1346 57.4328C44.4513 57.7253 46.5664 56.0836 46.858 53.767L50.8182 22.3667C51.1107 20.05 49.469 17.9359 47.1524 17.6433L28.5899 15.3023C26.2732 15.0098 24.1581 16.6514 23.8666 18.9681L19.9054 50.3684C19.6148 52.6841 21.2555 54.7992 23.5722 55.0917Z" fill="#507849"/>
<path d="M48.5807 34.9252C48.5516 34.9233 22.2731 31.6081 22.2731 31.6081C22.1447 31.5922 22.0537 31.4741 22.0697 31.3466C22.0866 31.2181 22.2056 31.1262 22.3313 31.1431L48.6097 34.4583C48.7382 34.4742 48.8291 34.5914 48.8131 34.7198C48.7991 34.8389 48.6969 34.9252 48.5807 34.9252Z" fill="#E8821C"/>
</svg>
