<svg width="48" height="48" viewBox="0 0 48 48" fill="none" xmlns="http://www.w3.org/2000/svg">
<path d="M9 3.5C5.96244 3.5 3.5 5.96244 3.5 9V39C3.5 42.0376 5.96244 44.5 9 44.5H21.5308L21.5306 29.499H20C18.6193 29.499 17.5 28.3796 17.5 26.999C17.5 25.6182 18.6193 24.499 20 24.499H21.5212L21.501 19.0241C21.4876 15.4249 24.4016 12.5 28.0008 12.5H34C35.3808 12.5 36.5 13.6193 36.5 15C36.5 16.3807 35.3808 17.5 34 17.5H28.0008C27.1702 17.5 26.4978 18.175 26.501 19.0056L26.5212 24.499H29.9998C31.3804 24.499 32.4998 25.6182 32.4998 26.999C32.4998 28.3796 31.3804 29.499 29.9998 29.499H26.5306L26.5308 44.5H39C42.0376 44.5 44.5 42.0376 44.5 39V9C44.5 5.96244 42.0376 3.5 39 3.5H9Z" fill="#404040"/>
</svg>
