<svg width="211" height="214" viewBox="0 0 211 214" fill="none" xmlns="http://www.w3.org/2000/svg">
<path d="M139.526 59.5343C139.526 59.5343 151.543 58.7485 154.893 60.078C158.243 61.4074 160.047 74.241 158.236 74.3186C156.426 74.3963 155.408 71.4952 155.408 71.4952C155.408 71.4952 156.562 74.5924 154.979 74.9162C153.396 75.24 150.827 72.4443 150.827 72.4443C150.827 72.4443 137.273 77.7172 131.406 67.1871C126.277 57.9838 139.526 59.5343 139.526 59.5343Z" fill="#ED7569"/>
<path d="M89.2791 21.1152L88.4038 28.4613C88.4038 28.4613 89.4766 30.7306 93.7334 31.5914C96.9043 32.2324 98.1153 31.6427 98.1153 31.6427L98.1113 27.869L98.1034 24.1887L90.5467 21.5575L89.2791 21.1152Z" fill="#F77E6D"/>
<path d="M90.5463 21.5557C90.541 21.7584 90.5897 22.0045 90.6753 22.2901C91.8823 26.156 96.2812 27.4815 98.1108 27.8672L98.103 24.1869L90.5463 21.5557Z" fill="black"/>
<path d="M101.734 7.63729C101.734 7.63729 104.493 17.3066 102.363 22.2439C100.233 27.1799 95.6685 25.7425 93.0057 24.3736C90.3429 23.0047 89.2755 21.1145 89.2755 21.1145C89.2755 21.1145 86.5442 21.6476 85.1239 18.9835C83.7037 16.3181 85.1555 13.6737 86.7337 13.2354C88.312 12.7971 89.9401 14.1133 89.9401 14.1133L88.9082 11.2715C88.9082 11.2715 96.5768 -1.42653 101.734 7.63729Z" fill="#F77E6D"/>
<path d="M99.7892 19.2234C99.7418 19.2234 99.6944 19.2129 99.6496 19.1918C99.4851 19.1142 99.414 18.918 99.4917 18.7535C100.239 17.1674 99.2495 15.1851 99.2403 15.1667C99.1574 15.0048 99.2219 14.8073 99.3838 14.7244C99.547 14.6415 99.7444 14.7073 99.826 14.8679C99.8734 14.96 100.974 17.1542 100.088 19.0352C100.031 19.1537 99.9129 19.2234 99.7892 19.2234Z" fill="black"/>
<path d="M88.9892 18.3762C88.8865 18.3762 88.7852 18.3275 88.7207 18.238L86.6133 15.2606C86.508 15.1119 86.5435 14.9065 86.6923 14.8012C86.841 14.6972 87.045 14.7315 87.1517 14.8802L89.259 17.8576C89.3643 18.0063 89.3288 18.2117 89.18 18.317C89.1221 18.3565 89.055 18.3762 88.9892 18.3762Z" fill="black"/>
<path d="M86.4653 17.3012C86.285 17.3012 86.1376 17.1564 86.1362 16.9748C86.1349 16.7931 86.2797 16.6444 86.4627 16.6431L88.2133 16.626C88.3963 16.626 88.5437 16.7708 88.545 16.9511C88.5463 17.1327 88.4015 17.2815 88.2186 17.2841L86.4679 17.3012H86.4653Z" fill="black"/>
<path d="M96.7198 21.6346C96.392 21.6346 96.0459 21.5516 95.7155 21.3239C94.6151 20.5644 94.4071 19.2113 94.3992 19.1534C94.3808 19.0323 94.4321 18.9112 94.5322 18.8401C94.6309 18.769 94.7625 18.7585 94.8718 18.8125L98.2717 20.5039C98.373 20.5539 98.4415 20.6539 98.4533 20.7658C98.4639 20.879 98.4165 20.9896 98.3256 21.0594C98.2848 21.0909 97.5622 21.6346 96.7198 21.6346ZM95.2667 19.7431C95.4207 20.0893 95.6773 20.496 96.0893 20.7829C96.529 21.0844 97.0502 20.9751 97.424 20.8158L95.2667 19.7431Z" fill="black"/>
<path d="M96.1377 15.2354C95.9508 15.2327 95.806 15.084 95.8086 14.9024L95.8323 13.1728C95.835 12.9924 95.9811 12.8477 96.1614 12.8477C96.3483 12.8503 96.4931 12.999 96.4905 13.1807L96.4668 14.9102C96.4641 15.0906 96.318 15.2354 96.1377 15.2354Z" fill="black"/>
<path d="M101.242 15.5433C101.06 15.5433 100.914 15.3972 100.913 15.2156L100.903 13.4847C100.902 13.303 101.048 13.1543 101.231 13.1543C101.414 13.1543 101.56 13.3004 101.561 13.482L101.571 15.2129C101.572 15.3946 101.425 15.542 101.242 15.5433Z" fill="black"/>
<path d="M95.0151 11.746C94.9492 11.746 94.8847 11.7262 94.8268 11.6867C94.6807 11.5827 94.6452 11.3813 94.7492 11.2339C95.5508 10.0993 97.05 10.639 97.1158 10.6613C97.283 10.7232 97.3685 10.9088 97.308 11.0773C97.2461 11.2458 97.0645 11.3326 96.892 11.2708C96.8473 11.255 95.7943 10.8838 95.2796 11.6091C95.2177 11.6986 95.1164 11.746 95.0151 11.746Z" fill="black"/>
<path d="M102.192 11.6977C102.1 11.6977 102.007 11.6595 101.943 11.5832C101.805 11.4239 101.355 11.0093 100.922 11.0027C100.707 10.9909 100.518 11.0936 100.336 11.2936C100.212 11.4292 100.005 11.4371 99.8703 11.3147C99.736 11.1923 99.7281 10.983 99.8492 10.8487C100.162 10.5065 100.527 10.3222 100.935 10.3446C101.755 10.3591 102.415 11.1225 102.444 11.1554C102.561 11.2936 102.544 11.5003 102.407 11.6187C102.345 11.6714 102.269 11.6977 102.192 11.6977Z" fill="black"/>
<path d="M89.9412 14.1142C89.9412 14.1142 89.4265 15.7293 91.5668 14.3446C93.707 12.9599 93.9492 10.6748 95.2128 8.00016C96.4764 5.32682 98.7996 3.7144 100.267 5.67695C101.735 7.63819 101.735 7.63819 101.735 7.63819L98.5114 2.85751C98.5114 2.85751 93.8597 -1.85078 88.592 1.96639C82.5609 6.33508 84.1483 9.49544 84.1483 9.49544C84.1483 9.49544 86.3859 12.2399 89.9412 14.1142Z" fill="black"/>
<path d="M89.0869 11.7637C89.0869 11.7637 89.8938 17.442 91.1877 17.0208C92.4816 16.5996 91.0337 10.8594 91.0337 10.8594L89.0869 11.7637Z" fill="black"/>
<path d="M85.1703 14.3843C85.1703 14.3843 106.295 7.68452 107.603 5.87992C108.912 4.07663 102.007 5.72855 102.007 5.72855C102.007 5.72855 98.4278 -2.84298 88.9717 1.19796C80.3528 4.88219 85.1703 14.3843 85.1703 14.3843Z" fill="#F7BE2F"/>
<path d="M155.408 71.825C155.29 71.825 155.176 71.7618 155.117 71.6513L152.542 66.8377C152.458 66.6771 152.517 66.4783 152.678 66.3928C152.838 66.3046 153.037 66.3665 153.124 66.5284L155.699 71.3419C155.783 71.5025 155.722 71.7013 155.563 71.7868C155.513 71.8132 155.46 71.825 155.408 71.825Z" fill="black"/>
<path d="M158.834 70.2333C158.709 70.2333 158.59 70.1622 158.535 70.0424L156.154 64.8879C156.076 64.7221 156.149 64.5273 156.314 64.4509C156.474 64.3733 156.674 64.447 156.75 64.6115L159.132 69.7673C159.21 69.9319 159.138 70.128 158.972 70.2043C158.927 70.2241 158.88 70.2333 158.834 70.2333Z" fill="black"/>
<path d="M125.38 135.786V143.842H107.072V134.825L125.38 135.786Z" fill="#FF9583"/>
<path d="M106.799 167.391C107.877 168.725 150.688 170.266 152.792 170.022C154.917 169.779 154.234 170.18 154.917 169.779C155.6 169.377 154.977 164.062 154.977 164.062C154.977 164.062 154.971 164.015 154.975 163.92C154.95 163.095 154.689 158.517 151.257 156.138C147.478 153.514 140.966 152.353 140.966 152.353C140.966 152.353 129.829 144.482 128.913 144.066C127.996 143.65 127.095 139.561 126.675 139.417C126.275 139.273 107.347 139.617 106.199 140.421C105.336 141.021 105.5 155.045 106.092 162.641C106.294 165.215 106.532 167.056 106.799 167.391Z" fill="#4D7046"/>
<path d="M106.798 167.391C107.876 168.725 150.686 170.266 152.791 170.023C154.916 169.779 154.232 170.181 154.916 169.779C155.599 169.378 154.976 164.063 154.976 164.063C154.976 164.063 154.97 164.015 154.974 163.92C147.787 163.909 128.513 163.789 116.413 163.189C112.182 162.975 108.791 162.795 106.091 162.64C106.293 165.216 106.531 167.056 106.798 167.391Z" fill="#FF611E"/>
<path d="M133.008 138.094C133.008 138.094 146.484 99.8405 139.62 87.6347C132.754 75.429 83.3668 84.2598 83.3668 84.2598L60.6244 85.3457C60.6244 85.3457 56.0227 107.693 65.6854 113.907C75.3481 120.12 104.51 117.934 104.51 117.934L100.898 138.094H133.008Z" fill="#A55D47"/>
<path d="M124.891 148.452C124.762 148.452 124.639 148.377 124.588 148.25C124.517 148.083 124.596 147.89 124.763 147.819L130.561 145.37C130.734 145.301 130.922 145.378 130.993 145.545C131.064 145.713 130.985 145.906 130.818 145.977L125.02 148.425C124.976 148.444 124.933 148.452 124.891 148.452Z" fill="#FF9E3E"/>
<path d="M128.374 150.663C128.245 150.663 128.124 150.588 128.072 150.462C128 150.295 128.079 150.101 128.247 150.03L134.045 147.582C134.217 147.511 134.407 147.59 134.477 147.757C134.548 147.924 134.469 148.118 134.301 148.189L128.503 150.637C128.46 150.655 128.416 150.663 128.374 150.663Z" fill="#FF9E3E"/>
<path d="M104.51 118.254C104.453 118.254 104.396 118.238 104.344 118.208C104.235 118.142 104.174 118.015 104.194 117.888C104.236 117.586 105.281 110.507 107.834 109.25C108.444 108.949 109.084 108.985 109.737 109.353C110.383 109.718 110.731 110.231 110.768 110.881C110.924 113.641 104.952 118.008 104.698 118.192C104.643 118.233 104.576 118.254 104.51 118.254ZM108.671 109.691C108.481 109.691 108.298 109.736 108.115 109.826C106.459 110.64 105.376 114.883 104.956 117.197C106.864 115.709 110.231 112.7 110.128 110.918C110.104 110.494 109.874 110.165 109.424 109.911C109.162 109.764 108.913 109.691 108.671 109.691Z" fill="white"/>
<path d="M180.929 210.546C197.086 210.546 210.185 197.191 210.185 180.717C210.185 164.243 197.086 150.888 180.929 150.888C164.772 150.888 151.674 164.243 151.674 180.717C151.674 197.191 164.772 210.546 180.929 210.546Z" fill="black"/>
<path d="M34.1548 213.333C50.312 213.333 63.4101 199.978 63.4101 183.504C63.4101 167.03 50.312 153.675 34.1548 153.675C17.9975 153.675 4.89941 167.03 4.89941 183.504C4.89941 199.978 17.9975 213.333 34.1548 213.333Z" fill="black"/>
<path d="M183.906 193.823C191.155 192.187 195.706 184.984 194.071 177.734C192.435 170.485 185.232 165.934 177.982 167.57C170.733 169.205 166.182 176.408 167.818 183.658C169.453 190.907 176.656 195.458 183.906 193.823Z" fill="#994239"/>
<path d="M37.2652 196.582C44.4962 194.867 48.9676 187.614 47.2524 180.383C45.5371 173.152 38.2848 168.681 31.0538 170.396C23.8228 172.111 19.3514 179.364 21.0666 186.595C22.7819 193.826 30.0342 198.297 37.2652 196.582Z" fill="#994239"/>
<path d="M99.5541 36.1182C99.5541 36.1182 107.352 52.8795 114.767 55.5134C119.255 57.1074 133.628 54.7552 133.628 54.7552L138.259 73.9319C138.259 73.9319 118.074 87.159 102.738 78.3585C92.4673 72.4642 88.0381 62.2434 88.0381 62.2434L99.5541 36.1182Z" fill="#FF611E"/>
<path d="M109.674 62.5101C109.45 62.5101 109.248 62.4127 109.102 62.2324C108.598 61.6098 108.432 60.9267 108.61 60.204C109.255 57.5715 114.416 55.3062 114.636 55.2114C114.766 55.1562 114.916 55.1877 115.01 55.2917C115.105 55.3957 115.123 55.5484 115.054 55.6721C114.441 56.7896 111.299 62.368 109.745 62.5062C109.721 62.5088 109.697 62.5101 109.674 62.5101ZM113.966 56.2645C112.471 57.0292 109.666 58.6653 109.25 60.3607C109.122 60.8806 109.242 61.3571 109.614 61.8178C110.467 61.777 112.5 58.7891 113.966 56.2645Z" fill="white"/>
<path d="M97.0813 90.5741C97.0813 90.5741 100.683 56.8461 101.13 49.2025C101.417 44.3073 101.403 36.6954 101.403 36.6954C101.403 36.6954 101.741 34.0918 101.54 32.9967C101.339 31.9015 88.1741 23.9052 86.617 24.15C85.0612 24.3962 86.8355 27.646 86.8355 27.646C86.8355 27.646 72.1854 27.2643 63.8614 46.2409C57.8895 59.8551 56.1533 86.5055 56.1533 86.5055L97.0813 90.5741Z" fill="#FF611E"/>
<path d="M92.0485 30.76C91.9958 30.76 91.9432 30.7481 91.8931 30.7218L86.6794 27.9379C86.5201 27.8524 86.4596 27.6523 86.5438 27.493C86.6294 27.3311 86.8295 27.2719 86.99 27.3574L92.2038 30.1413C92.363 30.2269 92.4236 30.427 92.3394 30.5862C92.2802 30.6968 92.1656 30.76 92.0485 30.76Z" fill="white"/>
<path d="M95.5768 49.6101C95.5768 49.6101 96.102 34.4415 88.1517 29.9385C80.2028 25.4356 66.6439 29.0382 66.6439 29.0382L65.0552 43.7501C65.0552 43.7501 75.093 30.4308 86.9526 34.527C95.815 37.5874 95.5768 49.6101 95.5768 49.6101Z" fill="#507849"/>
<path d="M78.7755 78.522C78.7755 78.522 69.251 76.4054 63.6437 73.0278C58.0364 69.6503 56.5516 60.3232 56.5516 60.3232L54.5088 76.5186C54.5088 76.5186 63.5858 81.298 78.7755 78.522Z" fill="#507849"/>
<path d="M100.682 55.9868C100.682 55.9868 103.914 43.5046 103.308 41.217C102.701 38.9293 101.402 37.7578 101.402 37.7578L100.682 55.9868Z" fill="#507849"/>
<path d="M161.84 85.3135C161.84 85.3135 166.554 102.729 168.984 116.426C171.396 130.027 170.266 146.985 170.266 146.985C170.266 146.985 177.375 142.524 191.592 146.985C205.81 151.445 204.195 162.64 204.195 162.64C204.195 162.64 194.326 153.675 179.015 160.924C163.703 168.172 160.969 180.439 159.329 180.996C157.689 181.554 146.752 180.996 146.752 180.996C146.752 180.996 146.204 186.013 142.376 188.244C138.549 190.474 68.5524 189.359 66.9123 188.244C65.2722 187.129 66.9123 179.324 66.9123 179.324C66.9123 179.324 2.76139 179.079 0.57507 177.964C-1.61257 176.849 17.1495 143.082 43.9447 133.047C70.74 123.01 101.911 128.029 103.551 132.488C105.191 136.949 93.1613 143.082 91.5199 154.233C89.8798 165.385 111.465 174.95 131.47 168.944C159.355 160.572 143.839 86.4823 143.839 86.4823L161.84 85.3135Z" fill="#FF9E3E"/>
<path d="M52.6146 136.391H102.701C105.375 136.391 107.542 134.223 107.542 131.55V122.833C107.542 120.16 105.375 117.992 102.701 117.992H52.6146C49.9413 117.992 47.7734 120.16 47.7734 122.833V131.55C47.7734 134.223 49.94 136.391 52.6146 136.391Z" fill="#A0463A"/>
<path d="M144.847 95.0189H162.247C165.132 95.0189 167.471 92.6799 167.471 89.7946V75.7106C167.471 72.8253 165.132 70.4863 162.247 70.4863H144.847C141.962 70.4863 139.623 72.8253 139.623 75.7106V89.7946C139.623 92.6799 141.962 95.0189 144.847 95.0189Z" fill="#A0463A"/>
<path d="M116.537 137.367V145.424H98.229V136.407L116.537 137.367Z" fill="#FF9583"/>
<path d="M97.955 168.971C99.0331 170.305 141.843 171.846 143.948 171.602C146.072 171.359 145.389 171.76 146.072 171.359C146.756 170.958 146.133 165.642 146.133 165.642C146.133 165.642 146.126 165.595 146.13 165.5C146.105 164.675 145.845 160.098 142.413 157.718C138.634 155.094 132.121 153.933 132.121 153.933C132.121 153.933 120.984 146.062 120.068 145.646C119.152 145.23 118.251 141.141 117.831 140.997C117.431 140.853 98.5026 141.197 97.3548 142C96.4914 142.6 96.6559 156.623 97.2482 164.22C97.4496 166.795 97.6878 168.636 97.955 168.971Z" fill="#507849"/>
<path d="M97.9564 168.971C99.0344 170.305 141.845 171.846 143.949 171.603C146.074 171.359 145.391 171.761 146.074 171.359C146.757 170.958 146.134 165.643 146.134 165.643C146.134 165.643 146.128 165.595 146.132 165.5C138.945 165.489 119.671 165.369 107.572 164.769C103.34 164.555 99.9492 164.375 97.2495 164.22C97.4509 166.796 97.6892 168.636 97.9564 168.971Z" fill="#FF611E"/>
<path d="M124.809 139.674C124.809 139.674 137.274 101.421 130.925 89.2148C124.574 77.0091 78.8925 85.8399 78.8925 85.8399L57.8572 86.9258C57.8572 86.9258 53.6017 109.273 62.5392 115.487C71.4766 121.7 98.4509 119.514 98.4509 119.514L95.1102 139.674H124.809Z" fill="#B56A4D"/>
<path d="M116.048 150.035C115.919 150.035 115.798 149.96 115.745 149.833C115.674 149.666 115.753 149.473 115.92 149.402L121.719 146.953C121.891 146.884 122.081 146.961 122.15 147.128C122.221 147.296 122.142 147.489 121.975 147.56L116.177 150.008C116.134 150.025 116.09 150.035 116.048 150.035Z" fill="#FF9E3E"/>
<path d="M119.533 152.244C119.404 152.244 119.283 152.169 119.231 152.043C119.16 151.876 119.239 151.682 119.406 151.611L125.204 149.163C125.376 149.094 125.566 149.171 125.636 149.338C125.707 149.505 125.628 149.698 125.461 149.77L119.662 152.218C119.62 152.236 119.576 152.244 119.533 152.244Z" fill="#FF9E3E"/>
<path d="M95.6666 119.844C95.6074 119.844 95.5495 119.829 95.4968 119.797C95.3836 119.729 95.3218 119.6 95.3415 119.468C95.3837 119.166 96.4301 112.082 98.9862 110.824C99.6009 110.523 100.242 110.557 100.899 110.928C101.548 111.294 101.895 111.81 101.933 112.464C102.091 115.228 96.1142 119.597 95.8601 119.781C95.8035 119.823 95.7351 119.844 95.6666 119.844ZM99.8287 111.282C99.6405 111.282 99.4588 111.327 99.2785 111.415C97.6305 112.226 96.5498 116.438 96.126 118.757C98.0359 117.266 101.377 114.274 101.275 112.501C101.252 112.081 101.023 111.753 100.575 111.502C100.316 111.354 100.067 111.282 99.8287 111.282Z" fill="white"/>
<path d="M143.84 73.2697C143.84 76.6643 146.593 79.4153 149.986 79.4153C153.381 79.4153 156.132 76.6643 156.132 73.2697C156.132 69.875 153.381 67.124 149.986 67.124C146.591 67.124 143.84 69.875 143.84 73.2697Z" fill="black"/>
<path d="M15.7468 164.328C15.6889 164.328 15.6297 164.312 15.577 164.28C15.4217 164.185 15.3717 163.984 15.4665 163.829C22.7454 151.814 38.7578 142.127 38.9197 142.03C39.0737 141.935 39.2764 141.987 39.3712 142.143C39.4647 142.299 39.4146 142.501 39.258 142.595C39.0987 142.691 23.2232 152.296 16.0298 164.17C15.9666 164.271 15.8587 164.328 15.7468 164.328Z" fill="white"/>
<path d="M165.202 147.228C165.166 147.228 165.13 147.223 165.094 147.21C164.922 147.15 164.832 146.962 164.891 146.791C166.605 141.86 165.664 127.359 165.655 127.213C165.642 127.031 165.78 126.875 165.96 126.863C166.173 126.839 166.297 126.989 166.31 127.17C166.351 127.771 167.268 141.95 165.514 147.007C165.465 147.143 165.338 147.228 165.202 147.228Z" fill="white"/>
<path d="M131.146 65.6681C131.146 65.6681 141.361 59.2895 144.942 58.8762C148.522 58.4629 156.184 68.914 154.625 69.8394C153.067 70.7634 150.796 68.6903 150.796 68.6903C150.796 68.6903 153.279 70.874 152.038 71.9072C150.796 72.9418 147.211 71.694 147.211 71.694C147.211 71.694 137.764 82.752 127.613 76.2509C118.743 70.5699 131.146 65.6681 131.146 65.6681Z" fill="#F98575"/>
<path d="M150.797 69.0202C150.734 69.0202 150.671 69.0017 150.614 68.9649L146.068 65.9427C145.918 65.8427 145.876 65.6373 145.977 65.4873C146.077 65.3359 146.28 65.2938 146.434 65.3952L150.98 68.4173C151.13 68.5173 151.173 68.7214 151.071 68.8727C151.008 68.9688 150.904 69.0202 150.797 69.0202Z" fill="black"/>
<path d="M153.062 65.9978C152.993 65.9978 152.924 65.9767 152.865 65.932L148.328 62.5176C148.183 62.4083 148.153 62.2017 148.262 62.0569C148.374 61.9108 148.581 61.8831 148.724 61.9924L153.261 65.4068C153.406 65.516 153.436 65.7227 153.327 65.8675C153.26 65.953 153.161 65.9978 153.062 65.9978Z" fill="black"/>
<path d="M132.725 61.1419L134.174 81.3782C134.174 81.3782 89.7053 94.0828 77.7694 79.3972C65.8335 64.7117 75.5002 29.7819 86.5252 33.0976C94.4057 35.4668 96.3735 54.6567 96.3735 54.6567L132.725 61.1419Z" fill="#FF611E"/>
<path d="M91.7546 55.4291C90.408 55.4291 89.2023 55.254 88.8048 54.692C88.6521 54.4748 88.531 54.1075 88.8232 53.5797C90.2527 50.9972 95.8955 54.0141 96.5352 54.3682C96.6576 54.4353 96.7248 54.5735 96.6998 54.7117C96.6761 54.8486 96.5681 54.9578 96.4312 54.9815C95.7863 55.0895 93.6316 55.4291 91.7546 55.4291ZM90.9372 53.2072C90.2395 53.2072 89.6749 53.3994 89.3984 53.8983C89.2457 54.1747 89.3181 54.2773 89.3418 54.3116C89.8025 54.9605 92.8339 54.8236 95.3124 54.484C94.0567 53.893 92.2574 53.2072 90.9372 53.2072Z" fill="white"/>
<path d="M29.3714 77.023L55.4322 80.3097C58.6847 80.7204 61.6542 78.4156 62.0635 75.1631L67.6248 31.0787C68.0354 27.8262 65.7306 24.8567 62.4782 24.4474L36.4174 21.1607C33.1649 20.75 30.1954 23.0548 29.786 26.3073L24.2261 70.3917C23.8154 73.6442 26.1189 76.6137 29.3714 77.023Z" fill="#4D7046"/>
<path d="M32.7475 77.4498L58.8083 80.7365C62.0608 81.1472 65.0303 78.8424 65.4396 75.5899L70.9995 31.5055C71.4102 28.253 69.1054 25.2848 65.8529 24.8741L39.7921 21.5874C36.5397 21.1767 33.5702 23.4815 33.1608 26.734L27.5996 70.8184C27.1915 74.0696 29.495 77.0391 32.7475 77.4498Z" fill="#507849"/>
<path d="M67.8579 49.1368C67.8171 49.1342 30.9234 44.4799 30.9234 44.4799C30.7431 44.4575 30.6154 44.2917 30.6378 44.1127C30.6615 43.9323 30.8286 43.8033 31.005 43.827L67.8987 48.4813C68.079 48.5037 68.2067 48.6683 68.1843 48.8486C68.1646 49.0157 68.0211 49.1368 67.8579 49.1368Z" fill="#E8821C"/>
</svg>
