<svg width="48" height="48" viewBox="0 0 48 48" fill="none" xmlns="http://www.w3.org/2000/svg">
<path fill-rule="evenodd" clip-rule="evenodd" d="M24.1144 3.5C28.4958 3.49998 31.9372 3.49996 34.624 3.86118C37.3772 4.23136 39.5618 5.00542 41.2782 6.72182C42.9946 8.43822 43.7686 10.6227 44.1388 13.376C44.5 16.0629 44.5 19.5042 44.5 23.8856V24.1144C44.5 28.4958 44.5 31.9372 44.1388 34.624C43.7686 37.3772 42.9946 39.5618 41.2782 41.2782C39.5618 42.9946 37.3772 43.7686 34.624 44.1388C31.9372 44.5 28.4958 44.5 24.1144 44.5H23.8856C19.5042 44.5 16.0629 44.5 13.376 44.1388C10.6227 43.7686 8.43822 42.9946 6.72182 41.2782C5.00544 39.5618 4.23136 37.3772 3.86118 34.624C3.49996 31.9372 3.49998 28.4958 3.5 24.1144V23.8856C3.49998 19.5042 3.49996 16.0629 3.86118 13.376C4.23136 10.6227 5.00544 8.43822 6.72182 6.72182C8.43822 5.00542 10.6227 4.23136 13.376 3.86118C16.0629 3.49996 19.5042 3.49998 23.8856 3.5H24.1144ZM33 24C33 28.9706 28.9706 33 24 33C19.0294 33 15 28.9706 15 24C15 19.0294 19.0294 15 24 15C28.9706 15 33 19.0294 33 24ZM35.0246 15C36.1242 15 37.0156 14.1046 37.0156 13C37.0156 11.8954 36.1242 11 35.0246 11H35.0066C33.907 11 33.0156 11.8954 33.0156 13C33.0156 14.1046 33.907 15 35.0066 15H35.0246Z" fill="#404040"/>
</svg>
