<svg width="44" height="44" viewBox="0 0 44 44" fill="none" xmlns="http://www.w3.org/2000/svg">
<path d="M16.0415 31.5039C16.0415 31.8753 16.0415 32.061 16.1289 32.1969C16.2164 32.3329 16.3981 32.4156 16.7615 32.5813C17.1672 32.7661 17.682 33.0191 18.3766 33.3645L18.9246 33.637C19.6823 34.0137 20.0611 34.202 20.2444 34.052C20.4278 33.9021 20.3119 33.4701 20.0802 32.6065C19.4975 30.4343 19.5313 27.9762 20.6722 25.3094C21.7269 22.8432 23.5448 20.888 25.7432 19.603C25.9327 19.4921 26.0275 19.4367 26.0763 19.3518C26.1249 19.2671 26.1249 19.1617 26.1249 18.9509V7.47994C26.1249 7.14838 26.1249 6.98259 26.0424 6.84949C25.9599 6.71641 25.8115 6.6426 25.5145 6.49498L20.428 3.96572C19.2015 3.35586 18.1966 2.85626 17.3291 2.52153C16.7937 2.31495 16.526 2.21166 16.2898 2.36659L16.2711 2.37944C16.0415 2.544 16.0415 2.85382 16.0415 3.47345V31.5039Z" fill="#FF611E"/>
<path d="M41.7083 20.3456C41.7083 21.1759 41.7083 21.5909 41.4944 21.6888C41.2803 21.7869 40.949 21.5009 40.286 20.9291C38.0242 18.9777 35.0878 17.8752 32.0859 17.8752C31.3183 17.8752 30.5547 17.9473 29.8056 18.0874C29.3618 18.1703 29.1397 18.2118 29.0074 18.1018C28.875 17.9919 28.875 17.7758 28.875 17.3437V7.95623C28.875 7.78292 29.0158 7.6426 29.189 7.6426L33.097 7.64258C34.7428 7.64253 36.1181 7.64249 37.2104 7.7926C38.3671 7.95151 39.4084 8.3015 40.2422 9.15365C41.0718 10.0016 41.4088 11.0538 41.5624 12.2213C41.7083 13.3319 41.7083 14.7323 41.7083 16.4189V20.3456Z" fill="#FF611E"/>
<path d="M13.2915 3.58829C13.2915 2.9878 13.2915 2.68757 13.0791 2.52242C13.0546 2.50339 13.0217 2.48229 12.9941 2.46805C12.7551 2.34448 12.5031 2.46086 11.9992 2.69364C11.1543 3.08383 10.1827 3.64745 8.99643 4.33564L6.6341 5.70602C5.77598 6.20379 5.04602 6.62722 4.47469 7.03977C3.86539 7.47976 3.34943 7.96652 2.96978 8.6329C2.59107 9.29769 2.43317 9.99186 2.36018 10.7441C2.29145 11.4524 2.29147 12.3074 2.29151 13.3178V28.4228C2.29147 29.7595 2.29145 30.8648 2.37655 31.7292C2.46248 32.6021 2.65221 33.4789 3.22344 34.1875C3.84621 34.9603 4.72412 35.4855 5.70195 35.6601C6.60596 35.8214 7.46279 35.5501 8.25259 35.1935C9.03342 34.8409 10.0817 34.2328 11.2166 33.5745C11.7356 33.2734 12.1999 33.0041 12.6332 32.7803C12.9651 32.6087 13.131 32.5229 13.2113 32.3912C13.2915 32.2594 13.2915 32.086 13.2915 31.7393V3.58829Z" fill="#FF611E"/>
<path fill-rule="evenodd" clip-rule="evenodd" d="M32.0844 20.625C28.3176 20.625 24.7136 22.8498 23.1991 26.3907C21.7819 29.7037 22.5683 32.5415 24.129 34.9006C25.3839 36.7972 27.215 38.4895 28.7981 39.9525C29.096 40.2277 29.385 40.495 29.6598 40.7539L29.6629 40.7566C30.3194 41.3715 31.1884 41.7083 32.0844 41.7083C32.9805 41.7083 33.8495 41.3715 34.506 40.7566C34.7667 40.5126 35.0397 40.2611 35.3207 40.0024C36.9198 38.5301 38.7749 36.8218 40.0429 34.9012C41.6016 32.5398 42.3851 29.6996 40.9698 26.3907C39.4553 22.8498 35.8513 20.625 32.0844 20.625ZM32.0671 26.5833C30.051 26.5833 28.4168 28.2249 28.4168 30.25C28.4168 32.2751 30.051 33.9167 32.0671 33.9167H32.0998C34.1159 33.9167 35.7501 32.2751 35.7501 30.25C35.7501 28.2249 34.1159 26.5833 32.0998 26.5833H32.0671Z" fill="#FF611E"/>
</svg>
