<svg width="44" height="44" viewBox="0 0 44 44" fill="none" xmlns="http://www.w3.org/2000/svg">
<path fill-rule="evenodd" clip-rule="evenodd" d="M17.8866 2.0625C18.8992 2.0625 19.72 2.88332 19.72 3.89583V9.01613H22.0903C22.5765 9.01613 23.0861 9.19413 23.2621 9.64733C23.5175 10.3042 23.38 11.0786 22.8496 11.6089L19.183 15.2755C18.4671 15.9915 17.3062 15.9915 16.5903 15.2755L12.9236 11.6089C12.3933 11.0786 12.2558 10.3042 12.5111 9.64733C12.6872 9.19413 13.1968 9.01613 13.683 9.01613H16.0533V3.89583C16.0533 2.88332 16.8741 2.0625 17.8866 2.0625ZM0.0188102 13.3744C0.00639853 13.2883 0 13.2008 0 13.1121C0 12.3876 0.42669 11.7311 1.08876 11.4368L7.23074 8.70703C8.08005 8.32957 9.07744 8.64736 9.55183 9.44656C10.1121 10.3905 9.72299 11.6119 8.71992 12.0577L6.3474 13.1121L17.8866 18.2407L29.4258 13.1121L27.0533 12.0577C26.0503 11.6119 25.6611 10.3905 26.2215 9.44656C26.6958 8.64736 27.6933 8.32957 28.5425 8.70703L34.6845 11.4368C35.3466 11.7311 35.7734 12.3876 35.7734 13.1121C35.7734 13.1552 35.7717 13.198 35.7688 13.2405V33.2292C35.7688 33.7726 35.4487 34.2652 34.952 34.4857L18.4449 41.8191C18.0894 41.9771 17.6835 41.9769 17.328 41.8189L0.835157 34.4855C0.338727 34.2648 0.0188102 33.7724 0.0188102 33.2292V13.3744ZM7.50187 20.9994C6.82264 20.6598 5.99672 20.935 5.65712 21.6143C5.31749 22.2935 5.5928 23.1194 6.27204 23.4592L9.9387 25.2925C10.6179 25.632 11.4438 25.3566 11.7835 24.6776C12.1231 23.9983 11.8478 23.1724 11.1685 22.8327L7.50187 20.9994Z" fill="#FF611E"/>
</svg>
