<svg width="137" height="144" viewBox="0 0 137 144" fill="none" xmlns="http://www.w3.org/2000/svg">
<path d="M82.3854 78.5771C82.3854 78.5771 98.7643 82.2729 107.348 82.2683C115.931 82.2626 106.798 95.3001 106.798 95.3001C106.798 95.3001 76.9354 99.4778 76.8754 91.5031C76.8154 83.5283 82.3854 78.5771 82.3854 78.5771Z" fill="#F98575"/>
<path d="M55.376 94.9216C55.376 94.9216 44.6636 112.15 41.8041 120.243C38.9455 128.336 29.8204 115.091 29.8204 115.091C29.8204 115.091 38.5545 82.3013 46.7824 81.3263C54.7028 80.3878 55.376 94.9216 55.376 94.9216Z" fill="#F98575"/>
<path d="M106.798 95.3004L113.425 95.4861L114.62 81.8467L107.348 82.2686L106.798 95.3004Z" fill="#FFA143"/>
<path d="M120.89 79.9835L125.299 79.7538L128.504 79.5879L134.279 116.122C134.279 116.122 132.856 116.4 131.07 116.259C128.969 116.088 126.364 115.334 124.995 112.848C120.297 104.32 114.468 97.5437 113.191 96.6053C112.613 96.1796 112.257 95.468 112.253 94.7077L112.514 83.0793C112.509 82.0311 113.168 81.148 114.091 80.9661L117.1 80.3754C118.348 80.1326 119.617 79.9995 120.89 79.9835Z" fill="#B75542"/>
<path d="M125.299 79.7539L128.504 79.588L128.526 79.7314L130.902 79.3555L131.574 83.6054L129.199 83.9813L129.801 87.7924L132.177 87.4165L132.856 91.7095L130.48 92.0855L131.033 95.5872L133.409 95.2122L134.088 99.508L131.712 99.884L132.304 103.624L134.679 103.248L135.358 107.544L132.982 107.92L133.609 111.88L135.984 111.504L136.656 115.748L134.28 116.124C134.28 116.124 132.857 116.402 131.071 116.261L125.299 79.7539Z" fill="#FF611E"/>
<path d="M119.966 104.847C120.063 104.847 120.153 104.787 120.187 104.691L121.776 100.133C121.819 100.011 121.755 99.8773 121.633 99.8352C121.511 99.792 121.377 99.8567 121.335 99.9786L119.745 104.536C119.702 104.658 119.767 104.792 119.889 104.834C119.914 104.844 119.94 104.847 119.966 104.847Z" fill="#FF611E"/>
<path d="M117.819 102.033C117.916 102.033 118.006 101.973 118.04 101.876L119.629 97.3188C119.672 97.197 119.608 97.0629 119.486 97.0207C119.363 96.9776 119.23 97.0423 119.188 97.1641L117.598 101.722C117.555 101.843 117.62 101.978 117.742 102.02C117.766 102.029 117.793 102.033 117.819 102.033Z" fill="#FF611E"/>
<path d="M114.603 107.514C114.797 107.514 114.991 107.478 115.182 107.407C117.071 106.695 118.018 102.585 118.057 102.41C118.086 102.284 118.006 102.158 117.88 102.13C117.753 102.099 117.628 102.181 117.6 102.307C117.591 102.348 116.671 106.346 115.017 106.969C114.593 107.128 114.155 107.04 113.685 106.698C113.247 106.379 113.05 106.026 113.081 105.62C113.195 104.168 116.183 102.335 117.327 101.751C117.356 101.736 117.383 101.716 117.405 101.689C117.451 101.61 117.46 101.567 117.456 101.524C117.44 101.432 117.4 101.374 117.34 101.34C117.214 101.266 114.218 99.533 112.61 99.9868C112.229 100.095 111.947 100.315 111.773 100.639C111.569 101.023 111.659 101.292 111.771 101.451C112.288 102.182 114.582 102.076 116.075 101.923C114.779 102.715 112.724 104.183 112.614 105.584C112.569 106.158 112.836 106.66 113.409 107.077C113.809 107.368 114.209 107.514 114.603 107.514ZM116.47 101.405C114.688 101.615 112.5 101.668 112.154 101.179C112.132 101.148 112.075 101.068 112.187 100.859C112.299 100.648 112.48 100.509 112.737 100.437C113.748 100.15 115.524 100.929 116.47 101.405Z" fill="#FF611E"/>
<path d="M29.8219 115.091L27.2896 121.217L39.6108 127.189L41.8047 120.243L29.8219 115.091Z" fill="#FFA143"/>
<path d="M110.744 77.6275V100.055C103.078 101.758 85.79 101.798 76.0639 97.7041C65.5868 93.293 60.8353 83.4253 60.8353 83.4253L74.5441 63.8906C74.5441 63.8906 81.752 72.5639 92.6359 75.4356C93.1 75.5565 110.265 77.5132 110.744 77.6275Z" fill="#507849"/>
<path d="M39.1201 133.712L37.7653 137.914L36.78 140.968L0.582287 133.362C0.582287 133.362 0.828861 131.933 1.59671 130.314C2.50425 128.411 4.13652 126.246 6.94541 125.852C16.5871 124.497 24.995 121.46 26.3263 120.6C26.9301 120.212 27.7214 120.133 28.433 120.4L39.2073 124.782C40.1889 125.15 40.7795 126.08 40.6201 127.008L40.1007 130.03C39.8851 131.284 39.5579 132.517 39.1201 133.712Z" fill="#B75542"/>
<path d="M37.7646 137.913L36.7793 140.967L36.6368 140.937L36.1427 143.29L31.9322 142.405L32.4263 140.052L28.6498 139.259L28.1557 141.612L23.9021 140.718L24.3962 138.365L20.9273 137.636L20.4332 139.989L16.1767 139.095L16.6708 136.741L12.9656 135.963L12.4716 138.316L8.2151 137.422L8.70919 135.069L4.78557 134.245L4.29148 136.598L0.086586 135.715L0.580681 133.361C0.580681 133.361 0.827255 131.933 1.5951 130.313L37.7646 137.913Z" fill="#FF611E"/>
<path d="M20.1248 127.424C20.1914 127.424 20.2579 127.396 20.3039 127.34C20.3873 127.241 20.3742 127.093 20.2757 127.009L16.5828 123.902C16.4843 123.82 16.3352 123.832 16.2518 123.93C16.1684 124.03 16.1815 124.178 16.2799 124.26L19.9739 127.368C20.0179 127.406 20.0714 127.424 20.1248 127.424Z" fill="#FF611E"/>
<path d="M23.5203 126.417C23.5869 126.417 23.6534 126.389 23.6994 126.334C23.7828 126.235 23.7697 126.086 23.6713 126.003L19.9783 122.896C19.8789 122.813 19.7307 122.827 19.6482 122.924C19.5648 123.024 19.5779 123.172 19.6764 123.255L23.3694 126.362C23.4125 126.4 23.4669 126.417 23.5203 126.417Z" fill="#FF611E"/>
<path d="M19.296 123.121C19.3719 123.121 19.4469 123.085 19.4919 123.016C19.5632 122.908 19.5341 122.763 19.4263 122.691C19.3916 122.668 15.9827 120.385 15.9902 118.618C15.9921 118.163 16.2302 117.787 16.7177 117.469C17.1715 117.172 17.57 117.113 17.9394 117.289C19.2566 117.912 19.9054 121.357 20.0451 122.634C20.0479 122.666 20.0582 122.697 20.0751 122.726C20.0826 122.741 20.0929 122.754 20.1032 122.766C20.1323 122.8 20.1698 122.822 20.2101 122.834C20.302 122.854 20.3704 122.837 20.4248 122.793C20.5392 122.7 23.2252 120.518 23.3724 118.854C23.4071 118.46 23.3021 118.118 23.0602 117.84C22.7743 117.513 22.4893 117.502 22.3018 117.549C21.4355 117.772 20.7164 119.952 20.3292 121.403C20.0507 119.908 19.4094 117.467 18.14 116.865C17.6206 116.617 17.0553 116.689 16.4618 117.077C15.8402 117.482 15.5243 118 15.5224 118.617C15.5149 120.636 19.0185 122.983 19.1685 123.083C19.2069 123.109 19.2519 123.121 19.296 123.121ZM22.4649 117.998C22.5155 117.998 22.5961 118.022 22.7068 118.148C22.8643 118.329 22.929 118.547 22.9055 118.814C22.8127 119.86 21.4533 121.243 20.6723 121.958C21.1101 120.218 21.8396 118.153 22.419 118.004C22.4293 118.001 22.4443 117.998 22.4649 117.998Z" fill="#FF611E"/>
<path d="M27.2878 116.957L43.8008 124.082C43.8008 124.082 64.484 93.2759 69.3845 85.0424C76.4602 73.1533 82.1633 64.211 80.3238 53.9927C78.9175 46.1811 52.985 58.0729 52.985 58.0729C52.985 58.0729 35.8317 88.666 27.2878 116.957Z" fill="#507849"/>
<path d="M81.3694 23.3745C81.3694 23.3745 87.6819 25.7934 93.0559 30.8617C98.5903 36.0811 101.041 47.9701 101.041 47.9701L93.835 51.4484C93.835 51.4484 88.8557 43.5345 84.1999 40.9413C79.5431 38.348 75.6176 36.8874 75.6176 36.8874L81.3694 23.3745Z" fill="#F98575"/>
<path d="M46.3569 41.2228C46.3569 41.2228 39.2616 44.6233 31.6778 40.4906C24.3771 36.5107 18.5315 24.9695 18.5315 24.9695L23.2877 19.1333C23.2877 19.1333 32.0425 25.8199 37.1296 27.4118C42.2158 29.0038 46.3569 29.6366 46.3569 29.6366V41.2228Z" fill="#F98575"/>
<path d="M25.3052 22.0943C25.3052 22.0943 25.0098 17.6466 24.5233 16.5947C24.0367 15.5428 21.7238 14.4852 21.7238 14.4852C21.7238 14.4852 17.9501 11.9098 16.8542 12.2651C15.7582 12.6214 15.5153 14.654 15.5153 14.654C15.5153 14.654 11.4473 18.1238 11.2542 21.1877C11.0611 24.2516 20.549 27.9315 20.549 27.9315L25.3052 25.6467V22.0943Z" fill="#F98575"/>
<path d="M40.6462 44.4535V28.0671C40.6462 28.0671 46.2912 23.0081 60.8353 20.4421C75.6167 17.8338 91.3374 26.8108 91.3374 26.8108L84.6921 41.9766L79.994 40.229L81.3507 56.6323L50.5251 59.4918L48.7241 44.0373L40.6462 44.4535Z" fill="#FF611E"/>
<path d="M65.7238 15.9556L65.8335 21.1196C65.8335 21.1196 64.9335 22.6234 61.9183 22.9337C59.672 23.1644 58.8704 22.6721 58.8704 22.6721L59.1282 20.0498L59.3832 17.4931L64.8125 16.1768L65.7238 15.9556Z" fill="#F98575"/>
<path d="M64.8115 16.1787C64.8012 16.3203 64.7515 16.4872 64.6718 16.6803C63.5711 19.2848 60.4238 19.9083 59.1272 20.0517L59.3822 17.495L64.8115 16.1787Z" fill="black"/>
<path d="M57.9797 5.74829C57.9797 5.74829 55.407 12.2802 56.5527 15.855C57.6975 19.4299 60.9676 18.7399 62.9102 17.9692C64.8537 17.1985 65.7228 15.9572 65.7228 15.9572C65.7228 15.9572 67.5848 16.5132 68.752 14.7572C69.9193 13.0021 69.0896 11.0651 68.0226 10.6545C66.9557 10.2429 65.735 11.0473 65.735 11.0473L66.6454 9.14314C66.6454 9.14314 62.178 -0.200435 57.9797 5.74829Z" fill="#F98575"/>
<path d="M58.57 13.9341C58.5962 13.9341 58.6225 13.9294 58.6487 13.9201C58.7706 13.8769 58.8344 13.7429 58.7903 13.621C58.3768 12.4669 59.2 11.1627 59.2075 11.1496C59.2778 11.0409 59.245 10.8955 59.1363 10.8262C59.0294 10.7558 58.8831 10.7868 58.8128 10.8974C58.7734 10.9583 57.8584 12.4106 58.3487 13.7794C58.3834 13.8751 58.4734 13.9341 58.57 13.9341Z" fill="black"/>
<path d="M66.1309 14.0793C66.1965 14.0793 66.2622 14.0521 66.3081 13.9987L67.9732 12.073C68.0576 11.9754 68.0473 11.8273 67.9498 11.7429C67.8523 11.6586 67.7041 11.6679 67.6188 11.7664L65.9537 13.6921C65.8694 13.7896 65.8797 13.9377 65.9772 14.023C66.0222 14.0605 66.0765 14.0793 66.1309 14.0793Z" fill="black"/>
<path d="M67.959 13.5034C68.0771 13.5034 68.1783 13.4143 68.1915 13.2943C68.2055 13.165 68.1118 13.0496 67.9833 13.0365L66.7683 12.9062C66.6408 12.8921 66.5236 12.9849 66.5105 13.1143C66.4964 13.2437 66.5901 13.359 66.7186 13.3722L67.9337 13.5025C67.9421 13.5034 67.9505 13.5034 67.959 13.5034Z" fill="black"/>
<path d="M62.3923 9.06658C62.4317 9.06658 62.472 9.05627 62.5086 9.03564C62.6211 8.97095 62.6605 8.82845 62.5958 8.71594C62.113 7.86934 61.0263 8.14123 60.9813 8.15435C60.8566 8.18717 60.7816 8.31467 60.8145 8.43937C60.8473 8.565 60.9767 8.63906 61.0995 8.60812C61.1313 8.60062 61.8833 8.41499 62.1889 8.94845C62.232 9.02439 62.3108 9.06658 62.3923 9.06658Z" fill="black"/>
<path d="M57.4107 8.54126C57.4698 8.54126 57.5269 8.5197 57.5729 8.47657C57.6779 8.37532 58.0107 8.1128 58.3182 8.14374C58.4645 8.15593 58.5901 8.23469 58.7017 8.38375C58.7795 8.48688 58.9258 8.50845 59.0298 8.43063C59.133 8.35282 59.1545 8.20562 59.0767 8.10249C58.8836 7.84654 58.6342 7.69841 58.3539 7.67591C57.7857 7.62247 57.2691 8.11749 57.2476 8.13905C57.1547 8.22906 57.1519 8.37625 57.2419 8.46907C57.2879 8.51782 57.3488 8.54126 57.4107 8.54126Z" fill="black"/>
<path d="M59.1889 15.8959C59.2807 15.8818 60.3561 15.6587 60.8136 14.8421C60.8764 14.7295 60.8361 14.587 60.7236 14.5233C60.6121 14.4605 60.4677 14.5008 60.4049 14.6133C60.0533 15.2396 59.1523 15.4299 59.1429 15.4318C59.0163 15.458 58.9348 15.5818 58.9601 15.7083C58.9817 15.819 59.0792 15.8959 59.1889 15.8959Z" fill="black"/>
<path d="M57.6774 10.9875C57.788 10.9875 57.8865 10.9087 57.908 10.7953L58.1152 9.66835C58.1387 9.54085 58.0543 9.41897 57.9268 9.39553C57.8021 9.37584 57.6774 9.45647 57.654 9.58398L57.4468 10.7109C57.4233 10.8384 57.5077 10.9603 57.6352 10.9837C57.6493 10.9856 57.6633 10.9875 57.6774 10.9875Z" fill="black"/>
<path d="M60.8258 11.2143C60.9365 11.2143 61.0349 11.1346 61.0565 11.0221L61.2637 9.89609C61.2871 9.76858 61.2027 9.6467 61.0752 9.62232C60.9487 9.6017 60.8258 9.68326 60.8024 9.81077L60.5952 10.9368C60.5718 11.0643 60.6561 11.1861 60.7836 11.2105C60.7977 11.2124 60.8118 11.2143 60.8258 11.2143Z" fill="black"/>
<path d="M12.0043 22.904C12.0043 22.904 15.3476 26.8679 17.0998 25.4147C18.8512 23.9615 20.9185 20.8386 20.9185 20.8386L16.5579 16.0796L12.0043 22.904Z" fill="#F98575"/>
<path d="M65.6612 11.1778C65.6612 11.1778 64.2746 10.9293 63.4233 9.42362C62.572 7.91792 62.392 5.75875 62.392 5.75875C62.392 5.75875 61.521 6.84818 59.6796 6.78912C57.8383 6.73005 57.9958 5.93689 57.9958 5.93689L57.678 6.46004C57.678 6.46004 57.1436 3.34645 59.8972 2.83174C62.6507 2.31703 62.391 2.01514 62.391 2.01514C62.391 2.01514 66.9091 2.23265 68.9295 5.24404C70.9499 8.2545 68.8826 11.4093 68.8826 11.4093C68.8826 11.4093 67.6225 10.139 65.6612 11.1778Z" fill="black"/>
<path d="M17.6943 16.8289C17.759 16.8289 17.8227 16.8026 17.8687 16.751C17.9549 16.6545 17.9465 16.5063 17.8499 16.4201L15.672 14.4794C15.5745 14.3922 15.4273 14.4016 15.341 14.4981C15.2548 14.5947 15.2632 14.7428 15.3598 14.8291L17.5377 16.7698C17.5827 16.8092 17.639 16.8289 17.6943 16.8289Z" fill="black"/>
<path d="M23.8657 15.8073C23.8657 15.8073 17.571 15.3198 17.6929 17.3177C17.8148 19.3156 20.7784 19.2378 20.7784 19.2378C20.7784 19.2378 20.4315 23.933 23.4288 24.3502L23.8657 15.8073Z" fill="#F98575"/>
<path d="M23.4299 24.5848C23.5452 24.5848 23.6446 24.5004 23.6615 24.3832C23.6793 24.2547 23.5902 24.1366 23.4618 24.1188C20.7139 23.7363 21.0092 19.2998 21.0129 19.2548C21.0176 19.1892 20.9942 19.1236 20.9492 19.0757C20.9033 19.027 20.8245 19.0139 20.7729 19.0026C20.7448 18.9961 18.0344 19.0495 17.9275 17.3028C17.9162 17.1107 17.9837 16.9456 18.1356 16.7956C19.0619 15.8853 22.5739 15.9415 23.8471 16.04C23.9746 16.0625 24.089 15.9537 24.0993 15.8253C24.1097 15.6959 24.0131 15.5834 23.8837 15.5731C23.6868 15.5571 19.0741 15.2159 17.8065 16.4609C17.5553 16.7075 17.439 17 17.4587 17.331C17.5581 18.9642 19.3882 19.4348 20.5329 19.4705C20.5048 20.4877 20.5986 24.1929 23.3962 24.5819C23.4084 24.5838 23.4187 24.5848 23.4299 24.5848Z" fill="black"/>
<path d="M16.2917 23.4033C16.2917 23.4033 18.1199 22.9307 18.2784 21.9154C18.4368 20.8991 13.6478 17.4414 13.6478 17.4414L16.2917 23.4033Z" fill="#F98575"/>
<path d="M16.2929 23.6376C16.3126 23.6376 16.3323 23.6347 16.352 23.63C16.4326 23.6094 18.3321 23.106 18.5121 21.9509C18.6799 20.8765 14.9373 18.0817 13.7878 17.2501C13.6838 17.1732 13.5366 17.1976 13.4606 17.3026C13.3847 17.4076 13.4081 17.5548 13.5131 17.6298C15.7604 19.2527 18.1333 21.3378 18.049 21.8778C17.9383 22.5866 16.7026 23.0544 16.2348 23.1753C16.1092 23.2082 16.0342 23.3357 16.0661 23.4613C16.0933 23.5672 16.1889 23.6376 16.2929 23.6376Z" fill="black"/>
<path d="M15.3159 25.4153C15.3159 25.4153 16.9378 24.4778 16.2918 23.4024C15.6449 22.328 11.8029 20.7051 11.8029 20.7051L15.3159 25.4153Z" fill="#F98575"/>
<path d="M15.3166 25.6498C15.356 25.6498 15.3963 25.6395 15.4329 25.6179C15.4741 25.5945 16.4314 25.0329 16.6386 24.2313C16.723 23.9031 16.6742 23.5834 16.4933 23.2825C15.8267 22.1743 12.2949 20.6592 11.8946 20.4895C11.7765 20.4399 11.6386 20.4942 11.5871 20.6142C11.5365 20.7333 11.5927 20.8711 11.7118 20.9218C12.7609 21.3652 15.5932 22.6965 16.091 23.5234C16.2073 23.7156 16.2373 23.9088 16.1848 24.1122C16.0282 24.7235 15.206 25.2073 15.1985 25.212C15.0869 25.2767 15.0485 25.4201 15.1132 25.5326C15.1563 25.6076 15.2351 25.6498 15.3166 25.6498Z" fill="black"/>
<path d="M18.4793 21.7305C18.8168 21.7305 19.3109 21.6564 19.669 21.287C20.105 20.8379 20.2044 20.0973 19.9662 19.0857C19.9372 18.96 19.8115 18.8794 19.685 18.9113C19.5584 18.9403 19.4806 19.0669 19.5106 19.1925C19.7065 20.027 19.6447 20.6382 19.3325 20.9598C18.9321 21.3723 18.1999 21.2401 18.1933 21.2373C18.0677 21.2101 17.943 21.2936 17.9168 21.4201C17.8914 21.5467 17.973 21.6705 18.0996 21.6967C18.1155 21.7014 18.2665 21.7305 18.4793 21.7305Z" fill="black"/>
<path d="M66.1304 20.9838C66.1304 20.9838 66.4248 18.3005 65.7779 18.5874C65.131 18.8743 62.91 19.899 61.7155 20.0509C60.5211 20.2028 58.9282 19.0187 58.7229 19.4837C58.5176 19.9487 58.4379 22.9957 58.4379 22.9957C58.4379 22.9957 62.3643 25.7493 66.1304 20.9838Z" fill="#FF611E"/>
<path d="M48.7248 44.2708C48.8776 44.2567 48.9714 44.1414 48.9583 44.013L48.4117 38.6493C48.3985 38.5199 48.2823 38.4243 48.1548 38.4402C48.0263 38.4533 47.9326 38.5687 47.9457 38.6971L48.4923 44.0608C48.5045 44.1808 48.6057 44.2708 48.7248 44.2708Z" fill="white"/>
<path d="M66.7433 90.0635C66.8249 90.0635 66.9055 90.0203 66.9477 89.9425L77.6667 70.6854C77.7295 70.5719 77.6892 70.4294 77.5757 70.3666C77.4632 70.3047 77.3198 70.3441 77.257 70.4575L66.538 89.7147C66.4752 89.8281 66.5155 89.9707 66.629 90.0335C66.6655 90.0532 66.7049 90.0635 66.7433 90.0635Z" fill="#FF9E3E"/>
<path d="M46.9835 119.566C47.0754 119.566 47.1617 119.512 47.1992 119.423C47.2498 119.303 47.1935 119.166 47.0745 119.115L29.0436 111.524C28.9245 111.474 28.7867 111.53 28.7361 111.649C28.6854 111.768 28.7417 111.906 28.8608 111.956L46.8907 119.548C46.9216 119.561 46.9526 119.566 46.9835 119.566Z" fill="#FF9E3E"/>
<path d="M105.674 100.289C105.803 100.289 105.908 100.184 105.908 100.055V77.7949C105.908 77.6656 105.803 77.5605 105.674 77.5605C105.544 77.5605 105.439 77.6656 105.439 77.7949V100.055C105.439 100.184 105.544 100.289 105.674 100.289Z" fill="#FF9E3E"/>
<path d="M88.3577 81.5174C88.6662 81.5174 88.9484 81.3955 89.1996 81.1537C90.5825 79.8205 90.6275 74.9546 90.6294 74.7484C90.6303 74.6443 90.5609 74.5515 90.4606 74.5224C90.3603 74.4915 90.2525 74.5327 90.1962 74.6218C89.8625 75.1506 86.9533 79.8252 87.6471 81.1293C87.7371 81.2999 87.9283 81.5052 88.3221 81.5165C88.3343 81.5174 88.3465 81.5174 88.3577 81.5174ZM90.1297 75.6315C90.0528 77.0932 89.7875 79.9367 88.8752 80.8161C88.7065 80.9774 88.5302 81.0571 88.338 81.0477C88.1561 81.0421 88.0952 80.9708 88.0624 80.909C87.6864 80.2049 88.9906 77.5582 90.1297 75.6315Z" fill="#FF9E3E"/>
<path d="M98.4218 83.7329C98.4715 83.7329 98.5221 83.7254 98.5727 83.7076C98.8174 83.6242 98.9487 83.3579 98.8652 83.1132C98.8062 82.9388 92.9709 65.5549 97.1008 57.9458C98.0177 56.2563 99.3828 55.1725 101.157 54.7225C108.187 52.928 119.436 74.74 119.548 74.9603C119.666 75.191 119.948 75.2828 120.179 75.1638C120.41 75.0466 120.501 74.7634 120.383 74.5328C119.908 73.6056 108.676 51.847 100.926 53.8131C98.8877 54.3306 97.323 55.57 96.2767 57.4995C91.9527 65.4686 97.7308 82.6857 97.9783 83.4151C98.0449 83.6101 98.2268 83.7329 98.4218 83.7329Z" fill="#A0463A"/>
<path d="M105.642 109.501L136.227 99.9995L122.577 71.8525L100.94 78.5738L105.642 109.501Z" fill="#EF8E35"/>
<path d="M103.374 110.206L133.958 100.705L120.31 72.5586L98.6721 79.2799L103.374 110.206Z" fill="#FFA85A"/>
<path d="M89.7141 82.3149C89.9607 82.3149 90.167 82.1228 90.182 81.8734C90.1951 81.6493 91.5658 59.4379 99.2743 54.7896C101.073 53.7058 103.036 53.6729 105.275 54.693C111.858 57.695 106.942 79.8717 106.891 80.0958C106.834 80.348 106.992 80.5992 107.245 80.6564C107.498 80.7136 107.749 80.5552 107.806 80.302C108.019 79.3589 112.935 57.1559 105.664 53.8398C103.159 52.6979 100.846 52.7467 98.7896 53.987C90.6601 58.8895 89.2997 80.8852 89.2463 81.819C89.2313 82.0778 89.4282 82.299 89.687 82.314C89.6954 82.314 89.7048 82.3149 89.7141 82.3149Z" fill="#A0463A"/>
<path d="M86.067 110.984L118.018 108.78L111.216 78.2471L88.6115 79.8071L86.067 110.984Z" fill="#FF9E3E"/>
<path d="M83.6959 111.149L115.646 108.945L108.845 78.4116L86.2413 79.9708L83.6959 111.149Z" fill="#FCB465"/>
<path d="M93.8242 51.5524C93.8242 51.5524 92.5979 56.9301 92.5979 57.6117C92.5979 58.2933 93.2111 60.3287 93.2111 60.3287H95.3262C95.3262 60.3287 97.0316 66.1687 98.0545 65.1299C99.0773 64.0911 99.2479 61.8747 99.7598 61.7041C100.272 61.5335 106.055 60.0465 106.744 58.403C107.434 56.7595 101.295 46.0161 98.9067 45.3336C96.5206 44.6511 93.8242 51.5524 93.8242 51.5524Z" fill="#F98575"/>
<path d="M95.3272 60.5631C95.345 60.5631 95.3628 60.5612 95.3806 60.5574C95.5072 60.5274 95.585 60.4018 95.5559 60.2762L94.8162 57.1045C94.7862 56.9779 94.6606 56.901 94.5349 56.9291C94.4084 56.9591 94.3306 57.0848 94.3596 57.2104L95.1003 60.3821C95.1237 60.4909 95.2203 60.5631 95.3272 60.5631Z" fill="black"/>
<path d="M62.4174 23.1903C65.1991 23.1903 66.2904 21.183 66.3382 21.093C66.3982 20.9786 66.3551 20.838 66.2407 20.777C66.1235 20.717 65.9848 20.7602 65.9238 20.8745C65.8788 20.9589 64.7828 22.9446 61.9374 22.7009C61.8117 22.6849 61.6955 22.7843 61.6833 22.9146C61.672 23.044 61.7677 23.1575 61.8971 23.1687C62.0771 23.1828 62.2505 23.1903 62.4174 23.1903Z" fill="white"/>
</svg>
