<svg width="44" height="44" viewBox="0 0 44 44" fill="none" xmlns="http://www.w3.org/2000/svg">
<path fill-rule="evenodd" clip-rule="evenodd" d="M21.9998 2.29199C11.1152 2.29199 2.2915 11.1157 2.2915 22.0003C2.2915 32.885 11.1152 41.7087 21.9998 41.7087C32.8845 41.7087 41.7082 32.885 41.7082 22.0003C41.7082 11.1157 32.8845 2.29199 21.9998 2.29199ZM23.8332 12.8337C23.8332 11.8211 23.0124 11.0003 21.9998 11.0003C20.9873 11.0003 20.1665 11.8211 20.1665 12.8337V17.7984C18.5477 18.5056 17.4165 20.1208 17.4165 22.0003C17.4165 24.5316 19.4686 26.5837 21.9998 26.5837C22.5909 26.5837 23.1559 26.4718 23.6748 26.268L26.2035 28.7967C26.9194 29.5126 28.0803 29.5126 28.7962 28.7967C29.5121 28.0808 29.5121 26.9199 28.7962 26.204L26.2675 23.6753C26.4713 23.1564 26.5832 22.5914 26.5832 22.0003C26.5832 20.1208 25.452 18.5056 23.8332 17.7984V12.8337Z" fill="#FF611E"/>
</svg>
