<svg width="24" height="24" viewBox="0 0 24 24" fill="none" xmlns="http://www.w3.org/2000/svg">
<g clip-path="url(#clip0_66_438)">
<path d="M8.36006 0.789921C5.96209 1.6218 3.89408 3.20073 2.4598 5.2948C1.02551 7.38887 0.300549 9.88769 0.391395 12.4242C0.48224 14.9608 1.38411 17.4013 2.96452 19.3874C4.54494 21.3735 6.7206 22.8005 9.17194 23.4587C11.1593 23.9715 13.2415 23.994 15.2394 23.5243C17.0494 23.1177 18.7228 22.2481 20.0957 21.0005C21.5246 19.6624 22.5618 17.9602 23.0957 16.0768C23.676 14.0287 23.7793 11.8748 23.3976 9.78055H12.2376V14.4099H18.7007C18.5715 15.1483 18.2947 15.853 17.8868 16.4819C17.479 17.1107 16.9484 17.6509 16.3269 18.0699C15.5377 18.592 14.6481 18.9432 13.7151 19.1012C12.7793 19.2752 11.8195 19.2752 10.8838 19.1012C9.93542 18.9051 9.03825 18.5137 8.24944 17.9518C6.98222 17.0548 6.03071 15.7804 5.53069 14.3105C5.02222 12.8132 5.02222 11.1898 5.53069 9.69242C5.88661 8.64283 6.475 7.68717 7.25194 6.8968C8.14105 5.9757 9.26669 5.31729 10.5054 4.99381C11.744 4.67034 13.0479 4.69429 14.2738 5.06305C15.2315 5.35703 16.1073 5.87068 16.8313 6.56305C17.5601 5.83805 18.2876 5.11117 19.0138 4.38242C19.3888 3.99055 19.7976 3.61742 20.1669 3.21617C19.0617 2.18769 17.7645 1.3874 16.3494 0.861171C13.7726 -0.0744733 10.9531 -0.0996178 8.36006 0.789921Z" fill="white"/>
<path d="M8.36022 0.790832C10.9531 -0.0993112 13.7726 -0.0748285 16.3496 0.860207C17.7649 1.39001 19.0616 2.19415 20.1652 3.22646C19.7902 3.62771 19.3946 4.00271 19.0121 4.39271C18.2846 5.11896 17.5577 5.84271 16.8315 6.56396C16.1074 5.87159 15.2317 5.35794 14.274 5.06396C13.0484 4.69391 11.7446 4.66857 10.5056 4.99072C9.26663 5.31288 8.1403 5.97007 7.25021 6.89021C6.47328 7.68059 5.88489 8.63624 5.52896 9.68583L1.64209 6.67646C3.03336 3.91751 5.44224 1.80713 8.36022 0.790832Z" fill="#E33629"/>
<path d="M0.611889 9.65508C0.820804 8.61969 1.16765 7.617 1.64314 6.67383L5.53001 9.6907C5.02154 11.1881 5.02154 12.8114 5.53001 14.3088C4.23501 15.3088 2.93939 16.3138 1.64314 17.3238C0.452797 14.9544 0.0897629 12.2548 0.611889 9.65508Z" fill="#F8BD00"/>
<path d="M12.2381 9.7793H23.3981C23.7799 11.8735 23.6766 14.0274 23.0963 16.0755C22.5623 17.9589 21.5252 19.6612 20.0963 20.9993C18.8419 20.0205 17.5819 19.0493 16.3275 18.0705C16.9494 17.6511 17.4802 17.1103 17.8881 16.4808C18.296 15.8512 18.5726 15.1458 18.7013 14.4068H12.2381C12.2363 12.8655 12.2381 11.3224 12.2381 9.7793Z" fill="#587DBD"/>
<path d="M1.64062 17.3236C2.93687 16.3236 4.2325 15.3186 5.5275 14.3086C6.02851 15.779 6.98138 17.0534 8.25 17.9498C9.04127 18.5091 9.94037 18.8973 10.89 19.0898C11.8257 19.2638 12.7855 19.2638 13.7213 19.0898C14.6542 18.9319 15.5439 18.5806 16.3331 18.0586C17.5875 19.0373 18.8475 20.0086 20.1019 20.9873C18.7292 22.2356 17.0558 23.1059 15.2456 23.513C13.2476 23.9827 11.1655 23.9601 9.17813 23.4473C7.60632 23.0277 6.13814 22.2878 4.86563 21.2742C3.51874 20.2049 2.41867 18.8573 1.64062 17.3236Z" fill="#319F43"/>
</g>
<defs>
<clipPath id="clip0_66_438">
<rect width="24" height="24" fill="white"/>
</clipPath>
</defs>
</svg>
