<svg width="342" height="108" viewBox="0 0 342 108" fill="none" xmlns="http://www.w3.org/2000/svg">
<g clip-path="url(#clip0_7_260)">
<rect width="342" height="108" rx="16" fill="#FF791A"/>
<path d="M328.655 71.3027L279.731 99.1004L293.297 71.3027H328.655Z" fill="black" stroke="black" stroke-width="0.444763"/>
<path fill-rule="evenodd" clip-rule="evenodd" d="M279.61 10.559L287.674 24.3829L302.65 28.1599L292.282 39.3588L296.154 56.6387L279.61 49.7268L263.067 56.6387L266.938 39.3588L256.57 28.1599L271.546 24.3829L279.61 10.559Z" fill="#FFC71E"/>
<path d="M279.61 10.559L287.674 24.3829L302.65 28.1599L292.282 39.3588L296.154 56.6387L279.61 49.7268L263.067 56.6387L266.938 39.3588L256.57 28.1599L271.546 24.3829L279.61 10.559Z" fill="#FFC71E"/>
<path fill-rule="evenodd" clip-rule="evenodd" d="M279.61 -11.2009C254.832 -11.2009 234.81 9.07796 234.81 34.0121C234.81 48.3208 240.516 59.4834 251.463 69.1842C258.586 75.4956 274.418 90.9786 279.369 99.1004C284.641 91.0339 300.703 75.4347 307.757 69.1842C318.704 59.4834 324.41 48.3208 324.41 34.0121C324.41 9.07796 304.389 -11.2009 279.61 -11.2009ZM287.674 24.3829L279.61 10.559L271.546 24.3829L256.57 28.1599L266.938 39.3588L263.067 56.6387L279.61 49.7268L296.154 56.6387L292.282 39.3588L302.65 28.1599L287.674 24.3829Z" fill="#FFC71E"/>
<circle cx="279.509" cy="33.0531" r="26.241" stroke="#F7C2AB" stroke-width="4.00287"/>
<circle cx="279.509" cy="33.0531" r="24.2396" fill="#A23C10"/>
<path d="M290.406 46.396V25.9369H285.291H282.845V33.0531H275.729V25.9369H273.283H268.613V46.396H290.406Z" fill="#F6D07E"/>
<path d="M282.845 19.4878H275.729V22.3788H282.845V19.4878Z" fill="#F6D07E"/>
<path d="M275.729 25.9369V33.0531H282.845V25.9369H275.729Z" fill="#55BE72"/>
<path d="M273.283 25.9369H275.729V22.3788V19.4878L273.283 22.3788V25.9369Z" fill="#A97E40"/>
<path d="M282.845 25.9369H285.291V22.3788L282.845 19.4878V22.3788V25.9369Z" fill="#A97E40"/>
<path d="M28.768 41.216C27.58 41.216 26.542 40.946 25.654 40.406C24.766 39.866 24.076 39.11 23.584 38.138C23.092 37.166 22.846 36.032 22.846 34.736C22.846 33.452 23.092 32.318 23.584 31.334C24.088 30.35 24.802 29.582 25.726 29.03C26.662 28.466 27.766 28.184 29.038 28.184C30.466 28.184 31.66 28.532 32.62 29.228C33.58 29.912 34.198 30.866 34.474 32.09H32.422C32.242 31.394 31.864 30.848 31.288 30.452C30.712 30.044 29.956 29.84 29.02 29.84C28.132 29.84 27.358 30.038 26.698 30.434C26.05 30.83 25.552 31.394 25.204 32.126C24.856 32.858 24.682 33.728 24.682 34.736C24.682 35.756 24.856 36.632 25.204 37.364C25.552 38.096 26.044 38.654 26.68 39.038C27.316 39.422 28.048 39.614 28.876 39.614C30.148 39.614 31.102 39.248 31.738 38.516C32.386 37.784 32.764 36.806 32.872 35.582H29.398V34.196H34.69V41H33.052L32.89 39.074C32.602 39.542 32.266 39.938 31.882 40.262C31.51 40.574 31.072 40.814 30.568 40.982C30.064 41.138 29.464 41.216 28.768 41.216ZM40.1741 41.216C39.3101 41.216 38.5421 41.018 37.8701 40.622C37.1981 40.226 36.6701 39.674 36.2861 38.966C35.9141 38.258 35.7281 37.436 35.7281 36.5C35.7281 35.54 35.9141 34.706 36.2861 33.998C36.6701 33.278 37.1981 32.72 37.8701 32.324C38.5421 31.916 39.3221 31.712 40.2101 31.712C41.0981 31.712 41.8601 31.91 42.4961 32.306C43.1321 32.702 43.6241 33.23 43.9721 33.89C44.3201 34.538 44.4941 35.258 44.4941 36.05C44.4941 36.17 44.4881 36.302 44.4761 36.446C44.4761 36.578 44.4701 36.728 44.4581 36.896H37.0421V35.618H42.6941C42.6581 34.862 42.4061 34.274 41.9381 33.854C41.4701 33.422 40.8881 33.206 40.1921 33.206C39.7001 33.206 39.2501 33.32 38.8421 33.548C38.4341 33.764 38.1041 34.088 37.8521 34.52C37.6121 34.94 37.4921 35.474 37.4921 36.122V36.626C37.4921 37.298 37.6121 37.868 37.8521 38.336C38.1041 38.792 38.4341 39.14 38.8421 39.38C39.2501 39.608 39.6941 39.722 40.1741 39.722C40.7501 39.722 41.2241 39.596 41.5961 39.344C41.9681 39.092 42.2441 38.75 42.4241 38.318H44.2241C44.0681 38.87 43.8041 39.368 43.4321 39.812C43.0601 40.244 42.5981 40.586 42.0461 40.838C41.5061 41.09 40.8821 41.216 40.1741 41.216ZM49.0918 41C48.5158 41 48.0178 40.91 47.5978 40.73C47.1778 40.55 46.8538 40.25 46.6258 39.83C46.3978 39.41 46.2838 38.84 46.2838 38.12V33.458H44.7178V31.928H46.2838L46.4998 29.66H48.0838V31.928H50.6578V33.458H48.0838V38.138C48.0838 38.654 48.1918 39.008 48.4078 39.2C48.6238 39.38 48.9958 39.47 49.5238 39.47H50.5678V41H49.0918ZM56.4922 44.96L58.7062 39.992H58.1842L54.6022 31.928H56.5462L59.3902 38.516L62.2522 31.928H64.1422L58.3822 44.96H56.4922ZM68.1453 41.216C67.2933 41.216 66.5253 41.018 65.8413 40.622C65.1693 40.226 64.6353 39.674 64.2393 38.966C63.8553 38.246 63.6633 37.418 63.6633 36.482C63.6633 35.522 63.8613 34.688 64.2573 33.98C64.6533 33.26 65.1933 32.702 65.8773 32.306C66.5613 31.91 67.3293 31.712 68.1813 31.712C69.0453 31.712 69.8133 31.91 70.4853 32.306C71.1573 32.702 71.6853 33.254 72.0693 33.962C72.4653 34.67 72.6633 35.504 72.6633 36.464C72.6633 37.424 72.4653 38.258 72.0693 38.966C71.6853 39.674 71.1513 40.226 70.4673 40.622C69.7833 41.018 69.0093 41.216 68.1453 41.216ZM68.1453 39.668C68.6373 39.668 69.0813 39.548 69.4773 39.308C69.8853 39.068 70.2093 38.714 70.4493 38.246C70.7013 37.766 70.8273 37.172 70.8273 36.464C70.8273 35.756 70.7073 35.168 70.4673 34.7C70.2273 34.22 69.9033 33.86 69.4953 33.62C69.0993 33.38 68.6613 33.26 68.1813 33.26C67.7013 33.26 67.2573 33.38 66.8493 33.62C66.4413 33.86 66.1113 34.22 65.8593 34.7C65.6193 35.168 65.4993 35.756 65.4993 36.464C65.4993 37.172 65.6193 37.766 65.8593 38.246C66.1113 38.714 66.4353 39.068 66.8313 39.308C67.2393 39.548 67.6773 39.668 68.1453 39.668ZM77.2106 41.216C76.5026 41.216 75.8846 41.072 75.3566 40.784C74.8406 40.496 74.4386 40.064 74.1506 39.488C73.8746 38.912 73.7366 38.186 73.7366 37.31V31.928H75.5366V37.112C75.5366 37.964 75.7226 38.606 76.0946 39.038C76.4666 39.47 77.0006 39.686 77.6966 39.686C78.1646 39.686 78.5846 39.572 78.9566 39.344C79.3406 39.116 79.6406 38.786 79.8566 38.354C80.0726 37.922 80.1806 37.394 80.1806 36.77V31.928H81.9806V41H80.3786L80.2526 39.452C79.9766 40.004 79.5746 40.436 79.0466 40.748C78.5186 41.06 77.9066 41.216 77.2106 41.216ZM83.5451 41V31.928H85.1651L85.3271 33.638C85.5311 33.23 85.7951 32.888 86.1191 32.612C86.4431 32.324 86.8211 32.102 87.2531 31.946C87.6971 31.79 88.2011 31.712 88.7651 31.712V33.62H88.1171C87.7451 33.62 87.3911 33.668 87.0551 33.764C86.7191 33.848 86.4191 33.998 86.1551 34.214C85.9031 34.43 85.7051 34.724 85.5611 35.096C85.4171 35.468 85.3451 35.93 85.3451 36.482V41H83.5451ZM93.7096 41V30.704C93.7096 30.08 93.8116 29.57 94.0156 29.174C94.2316 28.778 94.5436 28.49 94.9516 28.31C95.3596 28.13 95.8516 28.04 96.4276 28.04H97.4896V29.57H96.7156C96.2836 29.57 95.9716 29.66 95.7796 29.84C95.5996 30.008 95.5096 30.308 95.5096 30.74V41H93.7096ZM92.3776 33.458V31.928H97.6876V33.458H92.3776ZM102.405 41.216C101.553 41.216 100.785 41.018 100.101 40.622C99.429 40.226 98.895 39.674 98.499 38.966C98.115 38.246 97.923 37.418 97.923 36.482C97.923 35.522 98.121 34.688 98.517 33.98C98.913 33.26 99.453 32.702 100.137 32.306C100.821 31.91 101.589 31.712 102.441 31.712C103.305 31.712 104.073 31.91 104.745 32.306C105.417 32.702 105.945 33.254 106.329 33.962C106.725 34.67 106.923 35.504 106.923 36.464C106.923 37.424 106.725 38.258 106.329 38.966C105.945 39.674 105.411 40.226 104.727 40.622C104.043 41.018 103.269 41.216 102.405 41.216ZM102.405 39.668C102.897 39.668 103.341 39.548 103.737 39.308C104.145 39.068 104.469 38.714 104.709 38.246C104.961 37.766 105.087 37.172 105.087 36.464C105.087 35.756 104.967 35.168 104.727 34.7C104.487 34.22 104.163 33.86 103.755 33.62C103.359 33.38 102.921 33.26 102.441 33.26C101.961 33.26 101.517 33.38 101.109 33.62C100.701 33.86 100.371 34.22 100.119 34.7C99.879 35.168 99.759 35.756 99.759 36.464C99.759 37.172 99.879 37.766 100.119 38.246C100.371 38.714 100.695 39.068 101.091 39.308C101.499 39.548 101.937 39.668 102.405 39.668ZM112.28 41.216C111.428 41.216 110.66 41.018 109.976 40.622C109.304 40.226 108.77 39.674 108.374 38.966C107.99 38.246 107.798 37.418 107.798 36.482C107.798 35.522 107.996 34.688 108.392 33.98C108.788 33.26 109.328 32.702 110.012 32.306C110.696 31.91 111.464 31.712 112.316 31.712C113.18 31.712 113.948 31.91 114.62 32.306C115.292 32.702 115.82 33.254 116.204 33.962C116.6 34.67 116.798 35.504 116.798 36.464C116.798 37.424 116.6 38.258 116.204 38.966C115.82 39.674 115.286 40.226 114.602 40.622C113.918 41.018 113.144 41.216 112.28 41.216ZM112.28 39.668C112.772 39.668 113.216 39.548 113.612 39.308C114.02 39.068 114.344 38.714 114.584 38.246C114.836 37.766 114.962 37.172 114.962 36.464C114.962 35.756 114.842 35.168 114.602 34.7C114.362 34.22 114.038 33.86 113.63 33.62C113.234 33.38 112.796 33.26 112.316 33.26C111.836 33.26 111.392 33.38 110.984 33.62C110.576 33.86 110.246 34.22 109.994 34.7C109.754 35.168 109.634 35.756 109.634 36.464C109.634 37.172 109.754 37.766 109.994 38.246C110.246 38.714 110.57 39.068 110.966 39.308C111.374 39.548 111.812 39.668 112.28 39.668ZM122.048 41.216C121.184 41.216 120.422 41.012 119.762 40.604C119.102 40.184 118.586 39.62 118.214 38.912C117.854 38.192 117.674 37.376 117.674 36.464C117.674 35.54 117.854 34.724 118.214 34.016C118.586 33.308 119.102 32.75 119.762 32.342C120.434 31.922 121.202 31.712 122.066 31.712C122.774 31.712 123.398 31.856 123.938 32.144C124.478 32.42 124.898 32.816 125.198 33.332V28.04H126.998V41H125.378L125.198 39.596C125.018 39.872 124.784 40.136 124.496 40.388C124.208 40.628 123.86 40.826 123.452 40.982C123.044 41.138 122.576 41.216 122.048 41.216ZM122.336 39.65C122.9 39.65 123.398 39.518 123.83 39.254C124.262 38.99 124.592 38.618 124.82 38.138C125.06 37.658 125.18 37.1 125.18 36.464C125.18 35.828 125.06 35.276 124.82 34.808C124.592 34.328 124.262 33.956 123.83 33.692C123.398 33.416 122.9 33.278 122.336 33.278C121.796 33.278 121.31 33.416 120.878 33.692C120.446 33.956 120.11 34.328 119.87 34.808C119.63 35.276 119.51 35.828 119.51 36.464C119.51 37.1 119.63 37.658 119.87 38.138C120.11 38.618 120.446 38.99 120.878 39.254C121.31 39.518 121.796 39.65 122.336 39.65ZM136.297 41.216C135.433 41.216 134.671 41.012 134.011 40.604C133.351 40.184 132.835 39.62 132.463 38.912C132.103 38.192 131.923 37.376 131.923 36.464C131.923 35.54 132.103 34.724 132.463 34.016C132.835 33.308 133.351 32.75 134.011 32.342C134.683 31.922 135.451 31.712 136.315 31.712C137.023 31.712 137.647 31.856 138.187 32.144C138.727 32.42 139.147 32.816 139.447 33.332V28.04H141.247V41H139.627L139.447 39.596C139.267 39.872 139.033 40.136 138.745 40.388C138.457 40.628 138.109 40.826 137.701 40.982C137.293 41.138 136.825 41.216 136.297 41.216ZM136.585 39.65C137.149 39.65 137.647 39.518 138.079 39.254C138.511 38.99 138.841 38.618 139.069 38.138C139.309 37.658 139.429 37.1 139.429 36.464C139.429 35.828 139.309 35.276 139.069 34.808C138.841 34.328 138.511 33.956 138.079 33.692C137.647 33.416 137.149 33.278 136.585 33.278C136.045 33.278 135.559 33.416 135.127 33.692C134.695 33.956 134.359 34.328 134.119 34.808C133.879 35.276 133.759 35.828 133.759 36.464C133.759 37.1 133.879 37.658 134.119 38.138C134.359 38.618 134.695 38.99 135.127 39.254C135.559 39.518 136.045 39.65 136.585 39.65ZM146.912 41.216C146.048 41.216 145.28 41.018 144.608 40.622C143.936 40.226 143.408 39.674 143.024 38.966C142.652 38.258 142.466 37.436 142.466 36.5C142.466 35.54 142.652 34.706 143.024 33.998C143.408 33.278 143.936 32.72 144.608 32.324C145.28 31.916 146.06 31.712 146.948 31.712C147.836 31.712 148.598 31.91 149.234 32.306C149.87 32.702 150.362 33.23 150.71 33.89C151.058 34.538 151.232 35.258 151.232 36.05C151.232 36.17 151.226 36.302 151.214 36.446C151.214 36.578 151.208 36.728 151.196 36.896H143.78V35.618H149.432C149.396 34.862 149.144 34.274 148.676 33.854C148.208 33.422 147.626 33.206 146.93 33.206C146.438 33.206 145.988 33.32 145.58 33.548C145.172 33.764 144.842 34.088 144.59 34.52C144.35 34.94 144.23 35.474 144.23 36.122V36.626C144.23 37.298 144.35 37.868 144.59 38.336C144.842 38.792 145.172 39.14 145.58 39.38C145.988 39.608 146.432 39.722 146.912 39.722C147.488 39.722 147.962 39.596 148.334 39.344C148.706 39.092 148.982 38.75 149.162 38.318H150.962C150.806 38.87 150.542 39.368 150.17 39.812C149.798 40.244 149.336 40.586 148.784 40.838C148.244 41.09 147.62 41.216 146.912 41.216ZM152.332 41V28.04H154.132V41H152.332ZM155.829 41V31.928H157.629V41H155.829ZM156.747 30.218C156.399 30.218 156.111 30.11 155.883 29.894C155.667 29.678 155.559 29.402 155.559 29.066C155.559 28.742 155.667 28.478 155.883 28.274C156.111 28.058 156.399 27.95 156.747 27.95C157.083 27.95 157.365 28.058 157.593 28.274C157.821 28.478 157.935 28.742 157.935 29.066C157.935 29.402 157.821 29.678 157.593 29.894C157.365 30.11 157.083 30.218 156.747 30.218ZM161.877 41L158.475 31.928H160.365L162.939 39.272L165.531 31.928H167.385L164.001 41H161.877ZM171.771 41.216C170.907 41.216 170.139 41.018 169.467 40.622C168.795 40.226 168.267 39.674 167.883 38.966C167.511 38.258 167.325 37.436 167.325 36.5C167.325 35.54 167.511 34.706 167.883 33.998C168.267 33.278 168.795 32.72 169.467 32.324C170.139 31.916 170.919 31.712 171.807 31.712C172.695 31.712 173.457 31.91 174.093 32.306C174.729 32.702 175.221 33.23 175.569 33.89C175.917 34.538 176.091 35.258 176.091 36.05C176.091 36.17 176.085 36.302 176.073 36.446C176.073 36.578 176.067 36.728 176.055 36.896H168.639V35.618H174.291C174.255 34.862 174.003 34.274 173.535 33.854C173.067 33.422 172.485 33.206 171.789 33.206C171.297 33.206 170.847 33.32 170.439 33.548C170.031 33.764 169.701 34.088 169.449 34.52C169.209 34.94 169.089 35.474 169.089 36.122V36.626C169.089 37.298 169.209 37.868 169.449 38.336C169.701 38.792 170.031 39.14 170.439 39.38C170.847 39.608 171.291 39.722 171.771 39.722C172.347 39.722 172.821 39.596 173.193 39.344C173.565 39.092 173.841 38.75 174.021 38.318H175.821C175.665 38.87 175.401 39.368 175.029 39.812C174.657 40.244 174.195 40.586 173.643 40.838C173.103 41.09 172.479 41.216 171.771 41.216ZM177.191 41V31.928H178.811L178.973 33.638C179.177 33.23 179.441 32.888 179.765 32.612C180.089 32.324 180.467 32.102 180.899 31.946C181.343 31.79 181.847 31.712 182.411 31.712V33.62H181.763C181.391 33.62 181.037 33.668 180.701 33.764C180.365 33.848 180.065 33.998 179.801 34.214C179.549 34.43 179.351 34.724 179.207 35.096C179.063 35.468 178.991 35.93 178.991 36.482V41H177.191ZM187.004 41.216C186.14 41.216 185.372 41.018 184.7 40.622C184.028 40.226 183.5 39.674 183.116 38.966C182.744 38.258 182.558 37.436 182.558 36.5C182.558 35.54 182.744 34.706 183.116 33.998C183.5 33.278 184.028 32.72 184.7 32.324C185.372 31.916 186.152 31.712 187.04 31.712C187.928 31.712 188.69 31.91 189.326 32.306C189.962 32.702 190.454 33.23 190.802 33.89C191.15 34.538 191.324 35.258 191.324 36.05C191.324 36.17 191.318 36.302 191.306 36.446C191.306 36.578 191.3 36.728 191.288 36.896H183.872V35.618H189.524C189.488 34.862 189.236 34.274 188.768 33.854C188.3 33.422 187.718 33.206 187.022 33.206C186.53 33.206 186.08 33.32 185.672 33.548C185.264 33.764 184.934 34.088 184.682 34.52C184.442 34.94 184.322 35.474 184.322 36.122V36.626C184.322 37.298 184.442 37.868 184.682 38.336C184.934 38.792 185.264 39.14 185.672 39.38C186.08 39.608 186.524 39.722 187.004 39.722C187.58 39.722 188.054 39.596 188.426 39.344C188.798 39.092 189.074 38.75 189.254 38.318H191.054C190.898 38.87 190.634 39.368 190.262 39.812C189.89 40.244 189.428 40.586 188.876 40.838C188.336 41.09 187.712 41.216 187.004 41.216ZM196.456 41.216C195.592 41.216 194.83 41.012 194.17 40.604C193.51 40.184 192.994 39.62 192.622 38.912C192.262 38.192 192.082 37.376 192.082 36.464C192.082 35.54 192.262 34.724 192.622 34.016C192.994 33.308 193.51 32.75 194.17 32.342C194.842 31.922 195.61 31.712 196.474 31.712C197.182 31.712 197.806 31.856 198.346 32.144C198.886 32.42 199.306 32.816 199.606 33.332V28.04H201.406V41H199.786L199.606 39.596C199.426 39.872 199.192 40.136 198.904 40.388C198.616 40.628 198.268 40.826 197.86 40.982C197.452 41.138 196.984 41.216 196.456 41.216ZM196.744 39.65C197.308 39.65 197.806 39.518 198.238 39.254C198.67 38.99 199 38.618 199.228 38.138C199.468 37.658 199.588 37.1 199.588 36.464C199.588 35.828 199.468 35.276 199.228 34.808C199 34.328 198.67 33.956 198.238 33.692C197.806 33.416 197.308 33.278 196.744 33.278C196.204 33.278 195.718 33.416 195.286 33.692C194.854 33.956 194.518 34.328 194.278 34.808C194.038 35.276 193.918 35.828 193.918 36.464C193.918 37.1 194.038 37.658 194.278 38.138C194.518 38.618 194.854 38.99 195.286 39.254C195.718 39.518 196.204 39.65 196.744 39.65ZM26.968 61C26.392 61 25.894 60.91 25.474 60.73C25.054 60.55 24.73 60.25 24.502 59.83C24.274 59.41 24.16 58.84 24.16 58.12V53.458H22.594V51.928H24.16L24.376 49.66H25.96V51.928H28.534V53.458H25.96V58.138C25.96 58.654 26.068 59.008 26.284 59.2C26.5 59.38 26.872 59.47 27.4 59.47H28.444V61H26.968ZM33.5128 61.216C32.6608 61.216 31.8928 61.018 31.2088 60.622C30.5368 60.226 30.0028 59.674 29.6068 58.966C29.2228 58.246 29.0308 57.418 29.0308 56.482C29.0308 55.522 29.2288 54.688 29.6248 53.98C30.0208 53.26 30.5608 52.702 31.2448 52.306C31.9288 51.91 32.6968 51.712 33.5488 51.712C34.4128 51.712 35.1808 51.91 35.8528 52.306C36.5248 52.702 37.0528 53.254 37.4368 53.962C37.8328 54.67 38.0308 55.504 38.0308 56.464C38.0308 57.424 37.8328 58.258 37.4368 58.966C37.0528 59.674 36.5188 60.226 35.8348 60.622C35.1508 61.018 34.3768 61.216 33.5128 61.216ZM33.5128 59.668C34.0048 59.668 34.4488 59.548 34.8448 59.308C35.2528 59.068 35.5768 58.714 35.8168 58.246C36.0688 57.766 36.1948 57.172 36.1948 56.464C36.1948 55.756 36.0748 55.168 35.8348 54.7C35.5948 54.22 35.2708 53.86 34.8628 53.62C34.4668 53.38 34.0288 53.26 33.5488 53.26C33.0688 53.26 32.6248 53.38 32.2168 53.62C31.8088 53.86 31.4788 54.22 31.2268 54.7C30.9868 55.168 30.8668 55.756 30.8668 56.464C30.8668 57.172 30.9868 57.766 31.2268 58.246C31.4788 58.714 31.8028 59.068 32.1988 59.308C32.6068 59.548 33.0448 59.668 33.5128 59.668ZM43.9977 64.96L46.2117 59.992H45.6897L42.1077 51.928H44.0517L46.8957 58.516L49.7577 51.928H51.6477L45.8877 64.96H43.9977ZM55.6507 61.216C54.7987 61.216 54.0307 61.018 53.3467 60.622C52.6747 60.226 52.1407 59.674 51.7447 58.966C51.3607 58.246 51.1687 57.418 51.1687 56.482C51.1687 55.522 51.3667 54.688 51.7627 53.98C52.1587 53.26 52.6987 52.702 53.3827 52.306C54.0667 51.91 54.8347 51.712 55.6867 51.712C56.5507 51.712 57.3187 51.91 57.9907 52.306C58.6627 52.702 59.1907 53.254 59.5747 53.962C59.9707 54.67 60.1687 55.504 60.1687 56.464C60.1687 57.424 59.9707 58.258 59.5747 58.966C59.1907 59.674 58.6567 60.226 57.9727 60.622C57.2887 61.018 56.5147 61.216 55.6507 61.216ZM55.6507 59.668C56.1427 59.668 56.5867 59.548 56.9827 59.308C57.3907 59.068 57.7147 58.714 57.9547 58.246C58.2067 57.766 58.3327 57.172 58.3327 56.464C58.3327 55.756 58.2127 55.168 57.9727 54.7C57.7327 54.22 57.4087 53.86 57.0007 53.62C56.6047 53.38 56.1667 53.26 55.6867 53.26C55.2067 53.26 54.7627 53.38 54.3547 53.62C53.9467 53.86 53.6167 54.22 53.3647 54.7C53.1247 55.168 53.0047 55.756 53.0047 56.464C53.0047 57.172 53.1247 57.766 53.3647 58.246C53.6167 58.714 53.9407 59.068 54.3367 59.308C54.7447 59.548 55.1827 59.668 55.6507 59.668ZM64.7161 61.216C64.0081 61.216 63.3901 61.072 62.8621 60.784C62.3461 60.496 61.9441 60.064 61.6561 59.488C61.3801 58.912 61.2421 58.186 61.2421 57.31V51.928H63.0421V57.112C63.0421 57.964 63.2281 58.606 63.6001 59.038C63.9721 59.47 64.5061 59.686 65.2021 59.686C65.6701 59.686 66.0901 59.572 66.4621 59.344C66.8461 59.116 67.1461 58.786 67.3621 58.354C67.5781 57.922 67.6861 57.394 67.6861 56.77V51.928H69.4861V61H67.8841L67.7581 59.452C67.4821 60.004 67.0801 60.436 66.5521 60.748C66.0241 61.06 65.4121 61.216 64.7161 61.216ZM71.0506 61V51.928H72.6706L72.8326 53.638C73.0366 53.23 73.3006 52.888 73.6246 52.612C73.9486 52.324 74.3266 52.102 74.7586 51.946C75.2026 51.79 75.7066 51.712 76.2706 51.712V53.62H75.6226C75.2506 53.62 74.8966 53.668 74.5606 53.764C74.2246 53.848 73.9246 53.998 73.6606 54.214C73.4086 54.43 73.2106 54.724 73.0666 55.096C72.9226 55.468 72.8506 55.93 72.8506 56.482V61H71.0506ZM80.7291 61V48.04H82.5291V61H80.7291ZM88.2406 61.216C87.3886 61.216 86.6206 61.018 85.9366 60.622C85.2646 60.226 84.7306 59.674 84.3346 58.966C83.9506 58.246 83.7586 57.418 83.7586 56.482C83.7586 55.522 83.9566 54.688 84.3526 53.98C84.7486 53.26 85.2886 52.702 85.9726 52.306C86.6566 51.91 87.4246 51.712 88.2766 51.712C89.1406 51.712 89.9086 51.91 90.5806 52.306C91.2526 52.702 91.7806 53.254 92.1646 53.962C92.5606 54.67 92.7586 55.504 92.7586 56.464C92.7586 57.424 92.5606 58.258 92.1646 58.966C91.7806 59.674 91.2466 60.226 90.5626 60.622C89.8786 61.018 89.1046 61.216 88.2406 61.216ZM88.2406 59.668C88.7326 59.668 89.1766 59.548 89.5726 59.308C89.9806 59.068 90.3046 58.714 90.5446 58.246C90.7966 57.766 90.9226 57.172 90.9226 56.464C90.9226 55.756 90.8026 55.168 90.5626 54.7C90.3226 54.22 89.9986 53.86 89.5906 53.62C89.1946 53.38 88.7566 53.26 88.2766 53.26C87.7966 53.26 87.3526 53.38 86.9446 53.62C86.5366 53.86 86.2066 54.22 85.9546 54.7C85.7146 55.168 85.5946 55.756 85.5946 56.464C85.5946 57.172 85.7146 57.766 85.9546 58.246C86.2066 58.714 86.5306 59.068 86.9266 59.308C87.3346 59.548 87.7726 59.668 88.2406 59.668ZM98.17 61.216C97.294 61.216 96.514 61.018 95.83 60.622C95.146 60.214 94.606 59.656 94.21 58.948C93.826 58.24 93.634 57.418 93.634 56.482C93.634 55.534 93.826 54.706 94.21 53.998C94.606 53.278 95.146 52.72 95.83 52.324C96.514 51.916 97.294 51.712 98.17 51.712C99.274 51.712 100.198 52 100.942 52.576C101.686 53.152 102.16 53.932 102.364 54.916H100.492C100.372 54.388 100.096 53.98 99.664 53.692C99.244 53.404 98.74 53.26 98.152 53.26C97.672 53.26 97.228 53.386 96.82 53.638C96.412 53.878 96.082 54.238 95.83 54.718C95.59 55.186 95.47 55.768 95.47 56.464C95.47 56.98 95.542 57.442 95.686 57.85C95.83 58.246 96.022 58.582 96.262 58.858C96.514 59.134 96.802 59.344 97.126 59.488C97.45 59.62 97.792 59.686 98.152 59.686C98.548 59.686 98.902 59.626 99.214 59.506C99.538 59.374 99.808 59.182 100.024 58.93C100.252 58.678 100.408 58.378 100.492 58.03H102.364C102.16 58.99 101.686 59.764 100.942 60.352C100.198 60.928 99.274 61.216 98.17 61.216ZM106.576 61.216C105.832 61.216 105.214 61.09 104.722 60.838C104.23 60.586 103.864 60.25 103.624 59.83C103.384 59.398 103.264 58.936 103.264 58.444C103.264 57.844 103.42 57.334 103.732 56.914C104.044 56.482 104.488 56.152 105.064 55.924C105.64 55.696 106.33 55.582 107.134 55.582H109.492C109.492 55.054 109.414 54.616 109.258 54.268C109.102 53.92 108.868 53.662 108.556 53.494C108.256 53.314 107.872 53.224 107.404 53.224C106.864 53.224 106.402 53.356 106.018 53.62C105.634 53.872 105.394 54.25 105.298 54.754H103.498C103.57 54.118 103.786 53.578 104.146 53.134C104.518 52.678 104.992 52.33 105.568 52.09C106.144 51.838 106.756 51.712 107.404 51.712C108.256 51.712 108.97 51.862 109.546 52.162C110.122 52.462 110.554 52.888 110.842 53.44C111.142 53.98 111.292 54.628 111.292 55.384V61H109.726L109.582 59.47C109.45 59.71 109.294 59.938 109.114 60.154C108.934 60.37 108.718 60.556 108.466 60.712C108.226 60.868 107.944 60.988 107.62 61.072C107.308 61.168 106.96 61.216 106.576 61.216ZM106.918 59.758C107.302 59.758 107.65 59.68 107.962 59.524C108.274 59.368 108.538 59.158 108.754 58.894C108.982 58.618 109.15 58.312 109.258 57.976C109.378 57.628 109.444 57.274 109.456 56.914V56.86H107.314C106.798 56.86 106.378 56.926 106.054 57.058C105.742 57.178 105.514 57.346 105.37 57.562C105.226 57.778 105.154 58.03 105.154 58.318C105.154 58.618 105.22 58.876 105.352 59.092C105.496 59.296 105.7 59.458 105.964 59.578C106.228 59.698 106.546 59.758 106.918 59.758ZM116.24 61C115.664 61 115.166 60.91 114.746 60.73C114.326 60.55 114.002 60.25 113.774 59.83C113.546 59.41 113.432 58.84 113.432 58.12V53.458H111.866V51.928H113.432L113.648 49.66H115.232V51.928H117.806V53.458H115.232V58.138C115.232 58.654 115.34 59.008 115.556 59.2C115.772 59.38 116.144 59.47 116.672 59.47H117.716V61H116.24ZM119.017 61V51.928H120.817V61H119.017ZM119.935 50.218C119.587 50.218 119.299 50.11 119.071 49.894C118.855 49.678 118.747 49.402 118.747 49.066C118.747 48.742 118.855 48.478 119.071 48.274C119.299 48.058 119.587 47.95 119.935 47.95C120.271 47.95 120.553 48.058 120.781 48.274C121.009 48.478 121.123 48.742 121.123 49.066C121.123 49.402 121.009 49.678 120.781 49.894C120.553 50.11 120.271 50.218 119.935 50.218ZM126.631 61.216C125.779 61.216 125.011 61.018 124.327 60.622C123.655 60.226 123.121 59.674 122.725 58.966C122.341 58.246 122.149 57.418 122.149 56.482C122.149 55.522 122.347 54.688 122.743 53.98C123.139 53.26 123.679 52.702 124.363 52.306C125.047 51.91 125.815 51.712 126.667 51.712C127.531 51.712 128.299 51.91 128.971 52.306C129.643 52.702 130.171 53.254 130.555 53.962C130.951 54.67 131.149 55.504 131.149 56.464C131.149 57.424 130.951 58.258 130.555 58.966C130.171 59.674 129.637 60.226 128.953 60.622C128.269 61.018 127.495 61.216 126.631 61.216ZM126.631 59.668C127.123 59.668 127.567 59.548 127.963 59.308C128.371 59.068 128.695 58.714 128.935 58.246C129.187 57.766 129.313 57.172 129.313 56.464C129.313 55.756 129.193 55.168 128.953 54.7C128.713 54.22 128.389 53.86 127.981 53.62C127.585 53.38 127.147 53.26 126.667 53.26C126.187 53.26 125.743 53.38 125.335 53.62C124.927 53.86 124.597 54.22 124.345 54.7C124.105 55.168 123.985 55.756 123.985 56.464C123.985 57.172 124.105 57.766 124.345 58.246C124.597 58.714 124.921 59.068 125.317 59.308C125.725 59.548 126.163 59.668 126.631 59.668ZM132.367 61V51.928H133.987L134.095 53.476C134.383 52.936 134.791 52.51 135.319 52.198C135.847 51.874 136.453 51.712 137.137 51.712C137.857 51.712 138.475 51.856 138.991 52.144C139.507 52.432 139.909 52.87 140.197 53.458C140.485 54.034 140.629 54.76 140.629 55.636V61H138.829V55.816C138.829 54.976 138.643 54.34 138.271 53.908C137.899 53.476 137.359 53.26 136.651 53.26C136.183 53.26 135.763 53.374 135.391 53.602C135.019 53.818 134.719 54.142 134.491 54.574C134.275 55.006 134.167 55.534 134.167 56.158V61H132.367ZM146.222 61V50.704C146.222 50.08 146.324 49.57 146.528 49.174C146.744 48.778 147.056 48.49 147.464 48.31C147.872 48.13 148.364 48.04 148.94 48.04H150.002V49.57H149.228C148.796 49.57 148.484 49.66 148.292 49.84C148.112 50.008 148.022 50.308 148.022 50.74V61H146.222ZM144.89 53.458V51.928H150.2V53.458H144.89ZM154.918 61.216C154.066 61.216 153.298 61.018 152.614 60.622C151.942 60.226 151.408 59.674 151.012 58.966C150.628 58.246 150.436 57.418 150.436 56.482C150.436 55.522 150.634 54.688 151.03 53.98C151.426 53.26 151.966 52.702 152.65 52.306C153.334 51.91 154.102 51.712 154.954 51.712C155.818 51.712 156.586 51.91 157.258 52.306C157.93 52.702 158.458 53.254 158.842 53.962C159.238 54.67 159.436 55.504 159.436 56.464C159.436 57.424 159.238 58.258 158.842 58.966C158.458 59.674 157.924 60.226 157.24 60.622C156.556 61.018 155.782 61.216 154.918 61.216ZM154.918 59.668C155.41 59.668 155.854 59.548 156.25 59.308C156.658 59.068 156.982 58.714 157.222 58.246C157.474 57.766 157.6 57.172 157.6 56.464C157.6 55.756 157.48 55.168 157.24 54.7C157 54.22 156.676 53.86 156.268 53.62C155.872 53.38 155.434 53.26 154.954 53.26C154.474 53.26 154.03 53.38 153.622 53.62C153.214 53.86 152.884 54.22 152.632 54.7C152.392 55.168 152.272 55.756 152.272 56.464C152.272 57.172 152.392 57.766 152.632 58.246C152.884 58.714 153.208 59.068 153.604 59.308C154.012 59.548 154.45 59.668 154.918 59.668ZM160.653 61V51.928H162.273L162.435 53.638C162.639 53.23 162.903 52.888 163.227 52.612C163.551 52.324 163.929 52.102 164.361 51.946C164.805 51.79 165.309 51.712 165.873 51.712V53.62H165.225C164.853 53.62 164.499 53.668 164.163 53.764C163.827 53.848 163.527 53.998 163.263 54.214C163.011 54.43 162.813 54.724 162.669 55.096C162.525 55.468 162.453 55.93 162.453 56.482V61H160.653Z" fill="white"/>
<path d="M174.508 61.216C173.692 61.216 172.942 61.066 172.258 60.766C171.574 60.466 171.022 60.01 170.602 59.398C170.194 58.786 169.978 58.006 169.954 57.058H172.438C172.438 57.442 172.522 57.79 172.69 58.102C172.858 58.414 173.098 58.66 173.41 58.84C173.722 59.02 174.094 59.11 174.526 59.11C174.934 59.11 175.282 59.032 175.57 58.876C175.858 58.708 176.074 58.492 176.218 58.228C176.362 57.952 176.434 57.64 176.434 57.292C176.434 56.896 176.332 56.566 176.128 56.302C175.936 56.026 175.66 55.816 175.3 55.672C174.952 55.528 174.544 55.456 174.076 55.456H173.14V53.386H174.076C174.652 53.386 175.138 53.254 175.534 52.99C175.93 52.726 176.128 52.318 176.128 51.766C176.128 51.322 175.978 50.968 175.678 50.704C175.39 50.44 175 50.308 174.508 50.308C173.932 50.308 173.488 50.476 173.176 50.812C172.864 51.136 172.69 51.538 172.654 52.018H170.206C170.242 51.214 170.44 50.524 170.8 49.948C171.172 49.372 171.676 48.934 172.312 48.634C172.948 48.334 173.68 48.184 174.508 48.184C175.384 48.184 176.128 48.34 176.74 48.652C177.352 48.952 177.814 49.36 178.126 49.876C178.438 50.392 178.594 50.956 178.594 51.568C178.594 52.072 178.498 52.516 178.306 52.9C178.126 53.272 177.88 53.584 177.568 53.836C177.256 54.088 176.92 54.268 176.56 54.376C177.028 54.472 177.436 54.658 177.784 54.934C178.132 55.198 178.402 55.54 178.594 55.96C178.798 56.38 178.9 56.86 178.9 57.4C178.9 58.084 178.732 58.72 178.396 59.308C178.06 59.884 177.562 60.346 176.902 60.694C176.254 61.042 175.456 61.216 174.508 61.216ZM185.443 61.216C184.291 61.216 183.301 60.94 182.473 60.388C181.645 59.836 181.009 59.074 180.565 58.102C180.121 57.118 179.899 55.984 179.899 54.7C179.899 53.416 180.121 52.288 180.565 51.316C181.009 50.332 181.645 49.564 182.473 49.012C183.301 48.46 184.291 48.184 185.443 48.184C186.595 48.184 187.579 48.46 188.395 49.012C189.223 49.564 189.859 50.332 190.303 51.316C190.747 52.288 190.969 53.416 190.969 54.7C190.969 55.984 190.747 57.118 190.303 58.102C189.859 59.074 189.223 59.836 188.395 60.388C187.579 60.94 186.595 61.216 185.443 61.216ZM185.443 58.948C186.031 58.948 186.547 58.774 186.991 58.426C187.435 58.078 187.783 57.592 188.035 56.968C188.287 56.332 188.413 55.576 188.413 54.7C188.413 53.824 188.287 53.074 188.035 52.45C187.783 51.814 187.435 51.322 186.991 50.974C186.547 50.626 186.031 50.452 185.443 50.452C184.855 50.452 184.339 50.626 183.895 50.974C183.451 51.322 183.103 51.814 182.851 52.45C182.599 53.074 182.473 53.824 182.473 54.7C182.473 55.576 182.599 56.332 182.851 56.968C183.103 57.592 183.451 58.078 183.895 58.426C184.339 58.774 184.855 58.948 185.443 58.948ZM194.336 61L201.392 48.4H203.84L196.784 61H194.336ZM203.444 61.216C202.856 61.216 202.322 61.084 201.842 60.82C201.362 60.556 200.978 60.184 200.69 59.704C200.414 59.212 200.276 58.636 200.276 57.976C200.276 57.292 200.414 56.71 200.69 56.23C200.978 55.75 201.362 55.384 201.842 55.132C202.322 54.868 202.856 54.736 203.444 54.736C204.032 54.736 204.56 54.868 205.028 55.132C205.508 55.384 205.886 55.75 206.162 56.23C206.438 56.71 206.576 57.292 206.576 57.976C206.576 58.636 206.438 59.212 206.162 59.704C205.886 60.184 205.508 60.556 205.028 60.82C204.56 61.084 204.032 61.216 203.444 61.216ZM203.426 59.506C203.654 59.506 203.858 59.446 204.038 59.326C204.218 59.206 204.356 59.032 204.452 58.804C204.56 58.576 204.614 58.3 204.614 57.976C204.614 57.628 204.56 57.346 204.452 57.13C204.356 56.902 204.218 56.728 204.038 56.608C203.858 56.488 203.654 56.428 203.426 56.428C203.198 56.428 202.994 56.488 202.814 56.608C202.634 56.728 202.49 56.902 202.382 57.13C202.286 57.346 202.238 57.628 202.238 57.976C202.238 58.3 202.286 58.576 202.382 58.804C202.49 59.032 202.634 59.206 202.814 59.326C202.994 59.446 203.198 59.506 203.426 59.506ZM194.822 54.682C194.234 54.682 193.7 54.55 193.22 54.286C192.74 54.022 192.356 53.65 192.068 53.17C191.792 52.678 191.654 52.102 191.654 51.442C191.654 50.758 191.792 50.176 192.068 49.696C192.356 49.216 192.74 48.844 193.22 48.58C193.7 48.316 194.234 48.184 194.822 48.184C195.41 48.184 195.938 48.316 196.406 48.58C196.886 48.844 197.264 49.216 197.54 49.696C197.816 50.176 197.954 50.758 197.954 51.442C197.954 52.102 197.816 52.678 197.54 53.17C197.264 53.65 196.886 54.022 196.406 54.286C195.938 54.55 195.41 54.682 194.822 54.682ZM194.804 52.972C195.032 52.972 195.236 52.912 195.416 52.792C195.596 52.672 195.734 52.498 195.83 52.27C195.938 52.042 195.992 51.766 195.992 51.442C195.992 51.094 195.938 50.806 195.83 50.578C195.734 50.35 195.596 50.176 195.416 50.056C195.236 49.936 195.038 49.876 194.822 49.876C194.594 49.876 194.384 49.936 194.192 50.056C194.012 50.176 193.868 50.35 193.76 50.578C193.664 50.806 193.616 51.094 193.616 51.442C193.616 51.766 193.664 52.042 193.76 52.27C193.868 52.498 194.012 52.672 194.192 52.792C194.372 52.912 194.576 52.972 194.804 52.972ZM29.056 81.216C27.832 81.216 26.752 80.94 25.816 80.388C24.88 79.836 24.142 79.074 23.602 78.102C23.074 77.118 22.81 75.984 22.81 74.7C22.81 73.416 23.074 72.288 23.602 71.316C24.142 70.332 24.88 69.564 25.816 69.012C26.752 68.46 27.832 68.184 29.056 68.184C30.292 68.184 31.378 68.46 32.314 69.012C33.262 69.564 33.994 70.332 34.51 71.316C35.038 72.288 35.302 73.416 35.302 74.7C35.302 75.984 35.038 77.118 34.51 78.102C33.994 79.074 33.262 79.836 32.314 80.388C31.378 80.94 30.292 81.216 29.056 81.216ZM29.056 78.948C29.812 78.948 30.466 78.774 31.018 78.426C31.57 78.078 31.996 77.592 32.296 76.968C32.596 76.332 32.746 75.576 32.746 74.7C32.746 73.824 32.596 73.074 32.296 72.45C31.996 71.814 31.57 71.322 31.018 70.974C30.466 70.626 29.812 70.452 29.056 70.452C28.312 70.452 27.664 70.626 27.112 70.974C26.572 71.322 26.146 71.814 25.834 72.45C25.534 73.074 25.384 73.824 25.384 74.7C25.384 75.576 25.534 76.332 25.834 76.968C26.146 77.592 26.572 78.078 27.112 78.426C27.664 78.774 28.312 78.948 29.056 78.948ZM36.4568 81V68.4H44.7188V70.434H38.9768V73.692H43.5488V75.672H38.9768V81H36.4568ZM45.5939 81V68.4H53.8559V70.434H48.1139V73.692H52.6859V75.672H48.1139V81H45.5939ZM54.7568 81.09C54.3008 81.09 53.9288 80.952 53.6408 80.676C53.3528 80.388 53.2088 80.046 53.2088 79.65C53.2088 79.242 53.3528 78.9 53.6408 78.624C53.9288 78.348 54.3008 78.21 54.7568 78.21C55.2128 78.21 55.5848 78.348 55.8728 78.624C56.1608 78.9 56.3048 79.242 56.3048 79.65C56.3048 80.046 56.1608 80.388 55.8728 80.676C55.5848 80.952 55.2128 81.09 54.7568 81.09Z" fill="#FFF1C8"/>
</g>
<defs>
<clipPath id="clip0_7_260">
<rect width="342" height="108" rx="16" fill="white"/>
</clipPath>
</defs>
</svg>
