<svg width="20" height="21" viewBox="0 0 20 21" fill="none" xmlns="http://www.w3.org/2000/svg">
<path fill-rule="evenodd" clip-rule="evenodd" d="M10.0001 1.54169C6.41676 1.54169 3.54175 4.52451 3.54175 8.16669C3.54175 10.3929 4.72987 12.1708 6.00742 13.4409C7.28839 14.7144 8.72333 15.5435 9.37141 15.8842C9.76758 16.0924 10.2326 16.0924 10.6287 15.8842C11.2768 15.5435 12.7117 14.7144 13.9927 13.4409C15.2703 12.1708 16.4584 10.3929 16.4584 8.16669C16.4584 4.52451 13.5834 1.54169 10.0001 1.54169ZM10.0001 5.50002C8.61933 5.50002 7.50008 6.61931 7.50008 8.00002C7.50008 9.38077 8.61933 10.5 10.0001 10.5C11.3808 10.5 12.5001 9.38077 12.5001 8.00002C12.5001 6.61931 11.3808 5.50002 10.0001 5.50002Z" fill="#141B34"/>
<path d="M4.89347 13.8931C5.32082 14.064 5.52873 14.5489 5.35787 14.9762L4.14877 18.0002H15.8025L14.6566 15.422C14.4697 15.0014 14.6591 14.509 15.0797 14.3221C15.5002 14.1352 15.9927 14.3245 16.1796 14.7451L17.3255 17.3233C17.8153 18.4255 17.0086 19.6669 15.8025 19.6669H4.14877C2.96977 19.6669 2.16351 18.4762 2.60123 17.3814L3.81032 14.3575C3.98118 13.9302 4.46612 13.7222 4.89347 13.8931Z" fill="#141B34"/>
</svg>
