<svg width="194" height="194" viewBox="0 0 194 194" fill="none" xmlns="http://www.w3.org/2000/svg">
<g clip-path="url(#clip0_4_9)">
<rect width="194" height="194" rx="97" fill="#FFF7E4"/>
<rect x="-16.2063" y="120.595" width="226.413" height="73.4054" fill="#80CDA2"/>
<path d="M170.644 150.386H21.4496H14.0614L10.4865 142.044H183.752V150.386H170.644Z" fill="white"/>
<path d="M149.671 120.356L97.2383 150.147L111.776 120.356H149.671Z" fill="black" stroke="black" stroke-width="0.476658"/>
<path fill-rule="evenodd" clip-rule="evenodd" d="M97.1083 55.2566L105.751 70.0718L121.8 74.1197L110.689 86.1217L114.838 104.641L97.1083 97.2332L79.3785 104.641L83.5276 86.1217L72.4162 74.1197L88.4661 70.0718L97.1083 55.2566Z" fill="#FF611E"/>
<path d="M97.1083 55.2566L105.751 70.0718L121.8 74.1197L110.689 86.1217L114.838 104.641L97.1083 97.2332L79.3785 104.641L83.5276 86.1217L72.4162 74.1197L88.4661 70.0718L97.1083 55.2566Z" fill="#FF611E"/>
<path fill-rule="evenodd" clip-rule="evenodd" d="M97.1083 31.9362C70.5529 31.9362 49.0958 53.6693 49.0958 80.3915C49.0958 95.7264 55.2108 107.689 66.9432 118.086C74.5763 124.85 91.5438 141.443 96.8504 150.148C102.5 141.503 119.714 124.785 127.273 118.086C139.006 107.689 145.121 95.7264 145.121 80.3915C145.121 53.6693 123.664 31.9362 97.1083 31.9362ZM105.751 70.0718L97.1083 55.2566L88.4661 70.0718L72.4162 74.1197L83.5276 86.1217L79.3785 104.641L97.1083 97.2332L114.838 104.641L110.689 86.1217L121.8 74.1197L105.751 70.0718Z" fill="#FF611E"/>
<circle cx="97.0001" cy="79.3636" r="28.1229" stroke="#F7C2AB" stroke-width="4.28993"/>
<circle cx="97.0001" cy="79.3636" r="25.9779" fill="#A23C10"/>
<path d="M108.678 93.6634V71.7371H103.197H100.575V79.3636H92.9484V71.7371H90.3268H85.3219V93.6634H108.678Z" fill="#F6D07E"/>
<path d="M100.575 64.8256H92.9484V67.9238H100.575V64.8256Z" fill="#F6D07E"/>
<path d="M92.9484 71.7371V79.3636H100.575V71.7371H92.9484Z" fill="#55BE72"/>
<path d="M90.3268 71.7371H92.9484V67.9238V64.8256L90.3268 67.9238V71.7371Z" fill="#A97E40"/>
<path d="M100.575 71.7371H103.197V67.9238L100.575 64.8256V67.9238V71.7371Z" fill="#A97E40"/>
</g>
<defs>
<clipPath id="clip0_4_9">
<rect width="194" height="194" rx="97" fill="white"/>
</clipPath>
</defs>
</svg>
