<svg width="16" height="17" viewBox="0 0 16 17" fill="none" xmlns="http://www.w3.org/2000/svg">
<path fill-rule="evenodd" clip-rule="evenodd" d="M7.99992 1.33331C5.13327 1.33331 2.83325 3.71957 2.83325 6.63331C2.83325 8.41431 3.78375 9.83658 4.80579 10.8527C5.83057 11.8715 6.97852 12.5348 7.49699 12.8073C7.81392 12.9739 8.18592 12.9739 8.50285 12.8073C9.02132 12.5348 10.1693 11.8715 11.1941 10.8527C12.2161 9.83658 13.1666 8.41431 13.1666 6.63331C13.1666 3.71957 10.8666 1.33331 7.99992 1.33331ZM7.99992 4.49998C6.89532 4.49998 5.99992 5.39541 5.99992 6.49998C5.99992 7.60458 6.89532 8.49998 7.99992 8.49998C9.10452 8.49998 9.99992 7.60458 9.99992 6.49998C9.99992 5.39541 9.10452 4.49998 7.99992 4.49998Z" fill="#FF611E"/>
<path d="M3.91478 11.2145C4.25665 11.3512 4.42299 11.7392 4.28629 12.081L3.31902 14.5002H12.642L11.7253 12.4376C11.5757 12.1012 11.7273 11.7072 12.0637 11.5577C12.4002 11.4082 12.7941 11.5596 12.9437 11.8961L13.8604 13.9587C14.2523 14.8404 13.6069 15.8336 12.642 15.8336H3.31902C2.37581 15.8336 1.73081 14.881 2.08099 14.0052L3.04825 11.586C3.18495 11.2442 3.5729 11.0778 3.91478 11.2145Z" fill="#FF611E"/>
</svg>
