<svg width="27" height="26" viewBox="0 0 27 26" fill="none" xmlns="http://www.w3.org/2000/svg">
<path d="M13.4999 0.458313C20.4265 0.458313 26.0416 6.07341 26.0416 13C26.0416 19.9266 20.4265 25.5416 13.4999 25.5416C6.57335 25.5416 0.958252 19.9266 0.958252 13C0.958252 6.07341 6.57335 0.458313 13.4999 0.458313ZM16.4166 7.45831C15.4413 7.45831 14.5227 7.77344 13.4999 8.66371C12.4771 7.77344 11.5586 7.45831 10.5833 7.45831C8.32036 7.45831 6.79158 9.38286 6.79158 11.5416C6.79158 12.6703 7.24732 13.7406 7.84204 14.6668C8.44108 15.5997 9.22441 16.4538 9.98283 17.1687C10.7447 17.8869 11.5031 18.4853 12.0689 18.9028C12.3523 19.1118 13.0306 19.5716 13.0306 19.5716L13.1411 19.632C13.4068 19.7515 13.7198 19.7308 13.9704 19.5716L13.9762 19.5682C14.1492 19.4507 14.6506 19.1096 14.931 18.9028C15.4968 18.4853 16.2551 17.8869 17.017 17.1687C17.7754 16.4538 18.5588 15.5997 19.1578 14.6668C19.7526 13.7406 20.2083 12.6703 20.2083 11.5416C20.2083 9.38286 18.6795 7.45831 16.4166 7.45831Z" fill="#F5F5F5"/>
<path d="M16.4166 7.45831C15.4413 7.45831 14.5227 7.77344 13.4999 8.66371C12.4771 7.77344 11.5586 7.45831 10.5833 7.45831C8.32036 7.45831 6.79158 9.38286 6.79158 11.5416C6.79158 12.6703 7.24732 13.7406 7.84204 14.6668C8.44108 15.5997 9.22441 16.4538 9.98283 17.1687C10.7447 17.8869 11.5031 18.4853 12.0689 18.9028C12.3523 19.1118 13.0306 19.5716 13.0306 19.5716L13.1411 19.632C13.4068 19.7515 13.7198 19.7308 13.9704 19.5716L13.9762 19.5682C14.1492 19.4507 14.6506 19.1096 14.931 18.9028C15.4968 18.4853 16.2551 17.8869 17.017 17.1687C17.7754 16.4538 18.5588 15.5997 19.1578 14.6668C19.7526 13.7406 20.2083 12.6703 20.2083 11.5416C20.2083 9.38286 18.6795 7.45831 16.4166 7.45831Z" fill="#FF611E"/>
</svg>
