<svg width="44" height="44" viewBox="0 0 44 44" fill="none" xmlns="http://www.w3.org/2000/svg">
<path d="M16.042 31.5039C16.042 31.8753 16.042 32.061 16.1294 32.1969C16.2169 32.3329 16.3986 32.4156 16.762 32.5813C17.1677 32.7661 17.6824 33.0191 18.3771 33.3645L18.9251 33.637C19.6828 34.0137 20.0616 34.202 20.2449 34.052C20.4283 33.9021 20.3124 33.4701 20.0807 32.6065C19.498 30.4343 19.5318 27.9762 20.6726 25.3094C21.7274 22.8432 23.5453 20.888 25.7436 19.603C25.9332 19.4921 26.028 19.4367 26.0768 19.3518C26.1253 19.2671 26.1253 19.1617 26.1253 18.9509V7.47994C26.1253 7.14838 26.1253 6.98259 26.0428 6.84949C25.9603 6.71641 25.812 6.6426 25.515 6.49498L20.4284 3.96572C19.2019 3.35586 18.1971 2.85626 17.3296 2.52153C16.7942 2.31495 16.5264 2.21166 16.2903 2.36659L16.2715 2.37944C16.042 2.544 16.042 2.85382 16.042 3.47345V31.5039Z" fill="#FF611E"/>
<path d="M41.7083 20.3456C41.7083 21.1759 41.7083 21.5909 41.4944 21.6888C41.2803 21.7869 40.949 21.5009 40.286 20.9291C38.0242 18.9777 35.0878 17.8752 32.0859 17.8752C31.3183 17.8752 30.5547 17.9473 29.8056 18.0874C29.3618 18.1703 29.1397 18.2118 29.0074 18.1018C28.875 17.9919 28.875 17.7758 28.875 17.3437V7.95623C28.875 7.78292 29.0158 7.6426 29.189 7.6426L33.097 7.64258C34.7428 7.64253 36.1181 7.64249 37.2104 7.7926C38.3671 7.95151 39.4084 8.3015 40.2422 9.15365C41.0718 10.0016 41.4088 11.0538 41.5624 12.2213C41.7083 13.3319 41.7083 14.7323 41.7083 16.4189V20.3456Z" fill="#FF611E"/>
<path d="M13.292 3.58829C13.292 2.9878 13.292 2.68757 13.0796 2.52242C13.0551 2.50339 13.0221 2.48229 12.9946 2.46805C12.7556 2.34448 12.5036 2.46086 11.9997 2.69364C11.1548 3.08383 10.1832 3.64745 8.99692 4.33564L6.63459 5.70602C5.77646 6.20379 5.0465 6.62722 4.47518 7.03977C3.86587 7.47976 3.34992 7.96652 2.97027 8.6329C2.59156 9.29769 2.43366 9.99186 2.36067 10.7441C2.29194 11.4524 2.29196 12.3074 2.29199 13.3178V28.4228C2.29196 29.7595 2.29194 30.8648 2.37704 31.7292C2.46297 32.6021 2.6527 33.4789 3.22393 34.1875C3.8467 34.9603 4.72461 35.4855 5.70243 35.6601C6.60645 35.8214 7.46328 35.5501 8.25308 35.1935C9.03391 34.8409 10.0822 34.2328 11.2171 33.5745C11.7361 33.2734 12.2004 33.0041 12.6337 32.7803C12.9656 32.6087 13.1315 32.5229 13.2117 32.3912C13.292 32.2594 13.292 32.086 13.292 31.7393V3.58829Z" fill="#FF611E"/>
<path fill-rule="evenodd" clip-rule="evenodd" d="M32.0839 20.625C28.3171 20.625 24.7131 22.8498 23.1986 26.3907C21.7815 29.7037 22.5678 32.5415 24.1285 34.9006C25.3834 36.7972 27.2145 38.4895 28.7976 39.9525C29.0955 40.2277 29.3845 40.495 29.6593 40.7539L29.6624 40.7566C30.3189 41.3715 31.1879 41.7083 32.0839 41.7083C32.98 41.7083 33.849 41.3715 34.5055 40.7566C34.7662 40.5126 35.0392 40.2611 35.3203 40.0024C36.9193 38.5301 38.7744 36.8218 40.0424 34.9012C41.6011 32.5398 42.3846 29.6996 40.9693 26.3907C39.4548 22.8498 35.8508 20.625 32.0839 20.625ZM32.0666 26.5833C30.0505 26.5833 28.4163 28.2249 28.4163 30.25C28.4163 32.2751 30.0505 33.9167 32.0666 33.9167H32.0993C34.1154 33.9167 35.7496 32.2751 35.7496 30.25C35.7496 28.2249 34.1154 26.5833 32.0993 26.5833H32.0666Z" fill="#FF611E"/>
</svg>
