<svg width="44" height="44" viewBox="0 0 44 44" fill="none" xmlns="http://www.w3.org/2000/svg">
<path fill-rule="evenodd" clip-rule="evenodd" d="M17.8871 2.0625C18.8997 2.0625 19.7204 2.88332 19.7204 3.89583V9.01613H22.0908C22.577 9.01613 23.0866 9.19413 23.2626 9.64733C23.518 10.3042 23.3805 11.0786 22.8501 11.6089L19.1835 15.2755C18.4675 15.9915 17.3067 15.9915 16.5908 15.2755L12.9241 11.6089C12.3938 11.0786 12.2563 10.3042 12.5116 9.64733C12.6877 9.19413 13.1973 9.01613 13.6835 9.01613H16.0538V3.89583C16.0538 2.88332 16.8746 2.0625 17.8871 2.0625ZM0.0192985 13.3744C0.00688681 13.2883 0.000488281 13.2008 0.000488281 13.1121C0.000488281 12.3876 0.427178 11.7311 1.08925 11.4368L7.23123 8.70703C8.08054 8.32957 9.07793 8.64736 9.55232 9.44656C10.1126 10.3905 9.72348 11.6119 8.72041 12.0577L6.34789 13.1121L17.8871 18.2407L29.4263 13.1121L27.0538 12.0577C26.0508 11.6119 25.6615 10.3905 26.222 9.44656C26.6963 8.64736 27.6938 8.32957 28.543 8.70703L34.685 11.4368C35.347 11.7311 35.7738 12.3876 35.7738 13.1121C35.7738 13.1552 35.7722 13.198 35.7693 13.2405V33.2292C35.7693 33.7726 35.4492 34.2652 34.9525 34.4857L18.4454 41.8191C18.0899 41.9771 17.684 41.9769 17.3285 41.8189L0.835645 34.4855C0.339215 34.2648 0.0192985 33.7724 0.0192985 33.2292V13.3744ZM7.50236 20.9994C6.82313 20.6598 5.99721 20.935 5.65761 21.6143C5.31798 22.2935 5.59329 23.1194 6.27252 23.4592L9.93919 25.2925C10.6184 25.632 11.4443 25.3566 11.7839 24.6776C12.1236 23.9983 11.8482 23.1724 11.169 22.8327L7.50236 20.9994Z" fill="#FF611E"/>
</svg>
