<svg width="11" height="10" viewBox="0 0 11 10" fill="none" xmlns="http://www.w3.org/2000/svg">
<path fill-rule="evenodd" clip-rule="evenodd" d="M2.44869 1.64393C2.57633 1.45246 2.83503 1.40072 3.0265 1.52837L3.6515 1.94504C3.84297 2.07268 3.89471 2.33138 3.76706 2.52285C3.63941 2.71432 3.38072 2.76606 3.18925 2.63841L2.56425 2.22174C2.37278 2.09409 2.32104 1.8354 2.44869 1.64393ZM8.97538 1.64393C9.10304 1.8354 9.05129 2.09409 8.85983 2.22174L8.23483 2.63841C8.04338 2.76606 7.78467 2.71432 7.657 2.52285C7.52938 2.33138 7.58113 2.07268 7.77258 1.94504L8.39758 1.52837C8.58904 1.40072 8.84775 1.45246 8.97538 1.64393Z" fill="#141B34"/>
<path fill-rule="evenodd" clip-rule="evenodd" d="M5.91346 2.21474C4.24178 2.21474 2.90117 3.37074 2.69826 5.01833C2.67013 5.24674 2.46218 5.40908 2.23379 5.38095C2.00539 5.35283 1.84304 5.14487 1.87117 4.91649C2.1239 2.86442 3.80773 1.38141 5.91346 1.38141C8.19396 1.38141 10.0801 3.13987 10.0801 5.43616C10.0801 7.73245 8.24721 9.58337 5.96671 9.58337H1.33708C1.10696 9.58337 0.92041 9.39683 0.92041 9.1667C0.92041 8.93658 1.10696 8.75004 1.33708 8.75004H5.96671C7.77721 8.75004 9.24679 7.28199 9.24679 5.43616C9.24679 3.59032 7.724 2.21474 5.91346 2.21474Z" fill="#141B34"/>
<path fill-rule="evenodd" clip-rule="evenodd" d="M4.46191 0.833323C4.46191 0.603207 4.64846 0.416656 4.87858 0.416656H6.96192C7.19204 0.416656 7.37859 0.603207 7.37859 0.833323C7.37859 1.06344 7.19204 1.24999 6.96192 1.24999H6.33692V1.66666C6.33692 1.89677 6.15038 2.08332 5.92025 2.08332C5.69013 2.08332 5.50358 1.89677 5.50358 1.66666V1.24999H4.87858C4.64846 1.24999 4.46191 1.06344 4.46191 0.833323Z" fill="#141B34"/>
<path fill-rule="evenodd" clip-rule="evenodd" d="M7.67337 3.45538C7.83608 3.6181 7.83608 3.88192 7.67337 4.04464L6.68191 5.03609C6.72824 5.15401 6.75374 5.28247 6.75374 5.41668C6.75374 5.99197 6.28737 6.45834 5.71208 6.45834C5.13679 6.45834 4.67041 5.99197 4.67041 5.41668C4.67041 4.84139 5.13679 4.37501 5.71208 4.37501C5.84629 4.37501 5.97474 4.40051 6.09266 4.44684L7.08412 3.45538C7.24683 3.29266 7.51066 3.29266 7.67337 3.45538Z" fill="#141B34"/>
<path fill-rule="evenodd" clip-rule="evenodd" d="M0.92041 6.25001C0.92041 6.01989 1.10696 5.83334 1.33708 5.83334H2.58708C2.81719 5.83334 3.00374 6.01989 3.00374 6.25001C3.00374 6.48014 2.81719 6.66668 2.58708 6.66668H1.33708C1.10696 6.66668 0.92041 6.48014 0.92041 6.25001Z" fill="#141B34"/>
<path fill-rule="evenodd" clip-rule="evenodd" d="M0.92041 7.70832C0.92041 7.4782 1.10696 7.29166 1.33708 7.29166H3.42041C3.65053 7.29166 3.83708 7.4782 3.83708 7.70832C3.83708 7.93845 3.65053 8.12499 3.42041 8.12499H1.33708C1.10696 8.12499 0.92041 7.93845 0.92041 7.70832Z" fill="#141B34"/>
</svg>
